<svg width="12" height="15" viewBox="0 0 12 15" fill="none" xmlns="http://www.w3.org/2000/svg">
<path d="M3.5901 11.69H7.7201C7.91513 11.69 8.07861 11.6241 8.21054 11.4921C8.34247 11.3602 8.40844 11.1967 8.40844 11.0017C8.40844 10.8067 8.34247 10.6432 8.21054 10.5113C8.07861 10.3793 7.91513 10.3134 7.7201 10.3134H3.5901C3.39508 10.3134 3.2316 10.3793 3.09967 10.5113C2.96774 10.6432 2.90177 10.8067 2.90177 11.0017C2.90177 11.1967 2.96774 11.3602 3.09967 11.4921C3.2316 11.6241 3.39508 11.69 3.5901 11.69ZM3.5901 8.9367H7.7201C7.91513 8.9367 8.07861 8.87073 8.21054 8.7388C8.34247 8.60687 8.40844 8.44339 8.40844 8.24836C8.40844 8.05334 8.34247 7.88986 8.21054 7.75793C8.07861 7.626 7.91513 7.56003 7.7201 7.56003H3.5901C3.39508 7.56003 3.2316 7.626 3.09967 7.75793C2.96774 7.88986 2.90177 8.05334 2.90177 8.24836C2.90177 8.44339 2.96774 8.60687 3.09967 8.7388C3.2316 8.87073 3.39508 8.9367 3.5901 8.9367ZM1.5251 14.4434C1.14652 14.4434 0.822431 14.3086 0.552833 14.039C0.283236 13.7694 0.148438 13.4453 0.148438 13.0667V2.05336C0.148438 1.67478 0.283236 1.35069 0.552833 1.08109C0.822431 0.811495 1.14652 0.676697 1.5251 0.676697H6.4639C6.64745 0.676697 6.8224 0.711113 6.98875 0.779947C7.1551 0.84878 7.30137 0.946294 7.42756 1.07249L10.766 4.41091C10.8922 4.5371 10.9897 4.68337 11.0585 4.84972C11.1274 5.01607 11.1618 5.19102 11.1618 5.37457V13.0667C11.1618 13.4453 11.027 13.7694 10.7574 14.039C10.4878 14.3086 10.1637 14.4434 9.7851 14.4434H1.5251ZM6.34344 4.8067C6.34344 5.00172 6.4094 5.1652 6.54133 5.29713C6.67326 5.42907 6.83674 5.49503 7.03177 5.49503H9.7851L6.34344 2.05336V4.8067Z" fill="white"/>
</svg>
