<svg width="23" height="16" viewBox="0 0 23 16" fill="none" xmlns="http://www.w3.org/2000/svg">
<path d="M11.5195 4.75635C10.7239 4.75635 9.96082 5.07242 9.39821 5.63503C8.8356 6.19764 8.51953 6.9607 8.51953 7.75635C8.51953 8.552 8.8356 9.31506 9.39821 9.87767C9.96082 10.4403 10.7239 10.7563 11.5195 10.7563C12.3152 10.7563 13.0782 10.4403 13.6409 9.87767C14.2035 9.31506 14.5195 8.552 14.5195 7.75635C14.5195 6.9607 14.2035 6.19764 13.6409 5.63503C13.0782 5.07242 12.3152 4.75635 11.5195 4.75635ZM11.5195 12.7563C10.1934 12.7563 8.92168 12.2296 7.984 11.2919C7.04632 10.3542 6.51953 9.08243 6.51953 7.75635C6.51953 6.43027 7.04632 5.1585 7.984 4.22081C8.92168 3.28313 10.1934 2.75635 11.5195 2.75635C12.8456 2.75635 14.1174 3.28313 15.0551 4.22081C15.9927 5.1585 16.5195 6.43027 16.5195 7.75635C16.5195 9.08243 15.9927 10.3542 15.0551 11.2919C14.1174 12.2296 12.8456 12.7563 11.5195 12.7563ZM11.5195 0.256348C6.51953 0.256348 2.24953 3.36635 0.519531 7.75635C2.24953 12.1463 6.51953 15.2563 11.5195 15.2563C16.5195 15.2563 20.7895 12.1463 22.5195 7.75635C20.7895 3.36635 16.5195 0.256348 11.5195 0.256348Z" fill="#5C4F51"/>
</svg>
