<svg width="93" height="93" viewBox="0 0 93 93" fill="none" xmlns="http://www.w3.org/2000/svg">
<rect x="0.232422" width="92.5344" height="92.5344" rx="12" fill="#2A8B5A"/>
<path d="M49.4294 47.4391L46.7339 43.9233C46.4995 43.6108 46.187 43.4545 45.7964 43.4545C45.4057 43.4545 45.0932 43.6108 44.8588 43.9233L40.9328 49.0799C40.6203 49.4705 40.5714 49.8807 40.7863 50.3104C41.0011 50.7401 41.3625 50.955 41.8703 50.955H60.5043C61.0122 50.955 61.3735 50.7401 61.5884 50.3104C61.8033 49.8807 61.7544 49.4705 61.4419 49.0799L55.7579 41.638C55.5236 41.3255 55.211 41.1692 54.8204 41.1692C54.4297 41.1692 54.1172 41.3255 53.8828 41.638L49.4294 47.4391ZM37.1239 60.3306C35.8348 60.3306 34.7312 59.8716 33.8132 58.9535C32.8952 58.0355 32.4361 56.9319 32.4361 55.6428V27.516C32.4361 26.2268 32.8952 25.1233 33.8132 24.2052C34.7312 23.2872 35.8348 22.8282 37.1239 22.8282H65.2507C66.5399 22.8282 67.6435 23.2872 68.5615 24.2052C69.4795 25.1233 69.9385 26.2268 69.9385 27.516V55.6428C69.9385 56.9319 69.4795 58.0355 68.5615 58.9535C67.6435 59.8716 66.5399 60.3306 65.2507 60.3306H37.1239ZM27.7483 69.7062C26.4592 69.7062 25.3556 69.2472 24.4376 68.3291C23.5196 67.4111 23.0605 66.3075 23.0605 65.0184V34.5477C23.0605 33.8836 23.2852 33.3269 23.7344 32.8777C24.1837 32.4284 24.7403 32.2038 25.4044 32.2038C26.0686 32.2038 26.6252 32.4284 27.0745 32.8777C27.5237 33.3269 27.7483 33.8836 27.7483 34.5477V65.0184H58.219C58.8831 65.0184 59.4398 65.243 59.8891 65.6922C60.3383 66.1415 60.5629 66.6982 60.5629 67.3623C60.5629 68.0264 60.3383 68.5831 59.8891 69.0323C59.4398 69.4816 58.8831 69.7062 58.219 69.7062H27.7483Z" fill="white"/>
</svg>
