<svg width="72" height="36" viewBox="0 0 72 36" fill="none" xmlns="http://www.w3.org/2000/svg">
<path d="M3.12343 35.7429C2.2866 35.7429 1.58514 35.4598 1.01906 34.8937C0.452966 34.3277 0.169922 33.6262 0.169922 32.7894V31.0911C0.169922 28.9744 1.25287 27.2515 3.41878 25.9225C5.58469 24.5934 8.43974 23.9288 11.984 23.9288C12.6239 23.9288 13.2392 23.9412 13.8299 23.9658C14.4206 23.9904 14.9867 24.0519 15.5282 24.1504C14.839 25.1841 14.3222 26.267 13.9776 27.3992C13.633 28.5314 13.4607 29.7128 13.4607 30.9434V35.7429H3.12343ZM20.8445 35.7429C20.0077 35.7429 19.3062 35.4598 18.7401 34.8937C18.174 34.3277 17.891 33.6262 17.891 32.7894V30.9434C17.891 29.3682 18.3217 27.9284 19.1831 26.6239C20.0446 25.3195 21.2629 24.175 22.8381 23.1905C24.4133 22.206 26.2962 21.4676 28.4867 20.9753C30.6772 20.4831 33.0523 20.237 35.612 20.237C38.221 20.237 40.6207 20.4831 42.8112 20.9753C45.0017 21.4676 46.8846 22.206 48.4598 23.1905C50.035 24.175 51.241 25.3195 52.0778 26.6239C52.9147 27.9284 53.3331 29.3682 53.3331 30.9434V32.7894C53.3331 33.6262 53.05 34.3277 52.4839 34.8937C51.9179 35.4598 51.2164 35.7429 50.3796 35.7429H20.8445ZM57.7633 35.7429V30.9434C57.7633 29.6636 57.6034 28.4576 57.2834 27.3254C56.9634 26.1932 56.4835 25.1349 55.8436 24.1504C56.385 24.0519 56.9388 23.9904 57.5049 23.9658C58.071 23.9412 58.6494 23.9288 59.2401 23.9288C62.7843 23.9288 65.6394 24.5811 67.8053 25.8855C69.9712 27.19 71.0541 28.9252 71.0541 31.0911V32.7894C71.0541 33.6262 70.7711 34.3277 70.205 34.8937C69.6389 35.4598 68.9374 35.7429 68.1006 35.7429H57.7633ZM11.984 20.9753C10.3595 20.9753 8.96892 20.3969 7.81213 19.2402C6.65533 18.0834 6.07694 16.6928 6.07694 15.0683C6.07694 13.3947 6.65533 11.9918 7.81213 10.8596C8.96892 9.7274 10.3595 9.16131 11.984 9.16131C13.6576 9.16131 15.0605 9.7274 16.1927 10.8596C17.3249 11.9918 17.891 13.3947 17.891 15.0683C17.891 16.6928 17.3249 18.0834 16.1927 19.2402C15.0605 20.3969 13.6576 20.9753 11.984 20.9753ZM59.2401 20.9753C57.6157 20.9753 56.225 20.3969 55.0683 19.2402C53.9115 18.0834 53.3331 16.6928 53.3331 15.0683C53.3331 13.3947 53.9115 11.9918 55.0683 10.8596C56.225 9.7274 57.6157 9.16131 59.2401 9.16131C60.9137 9.16131 62.3167 9.7274 63.4488 10.8596C64.581 11.9918 65.1471 13.3947 65.1471 15.0683C65.1471 16.6928 64.581 18.0834 63.4488 19.2402C62.3167 20.3969 60.9137 20.9753 59.2401 20.9753ZM35.612 18.0218C33.1508 18.0218 31.0587 17.1604 29.3358 15.4375C27.6129 13.7146 26.7515 11.6226 26.7515 9.16131C26.7515 6.65082 27.6129 4.54645 29.3358 2.84818C31.0587 1.14991 33.1508 0.300781 35.612 0.300781C38.1225 0.300781 40.2269 1.14991 41.9251 2.84818C43.6234 4.54645 44.4725 6.65082 44.4725 9.16131C44.4725 11.6226 43.6234 13.7146 41.9251 15.4375C40.2269 17.1604 38.1225 18.0218 35.612 18.0218Z" fill="#245501"/>
</svg>
