<svg width="42" height="47" viewBox="0 0 42 47" fill="none" xmlns="http://www.w3.org/2000/svg">
<path d="M20.8707 0.245117C9.46698 0.245117 0.230469 4.86337 0.230469 10.5652C0.230469 16.2671 9.46698 20.8854 20.8707 20.8854C32.2744 20.8854 41.511 16.2671 41.511 10.5652C41.511 4.86337 32.2744 0.245117 20.8707 0.245117ZM0.230469 15.7253V23.4654C0.230469 29.1673 9.46698 33.7855 20.8707 33.7855C32.2744 33.7855 41.511 29.1673 41.511 23.4654V15.7253C41.511 21.4272 32.2744 26.0454 20.8707 26.0454C9.46698 26.0454 0.230469 21.4272 0.230469 15.7253ZM0.230469 28.6254V36.3655C0.230469 42.0674 9.46698 46.6857 20.8707 46.6857C32.2744 46.6857 41.511 42.0674 41.511 36.3655V28.6254C41.511 34.3273 32.2744 38.9456 20.8707 38.9456C9.46698 38.9456 0.230469 34.3273 0.230469 28.6254Z" fill="#245501"/>
</svg>
