<svg width="19" height="19" viewBox="0 0 19 19" fill="none" xmlns="http://www.w3.org/2000/svg">
<path d="M8.34907 6.52402H10.1519V4.72119H8.34907M9.25049 16.4396C5.27524 16.4396 2.03916 13.2035 2.03916 9.22827C2.03916 5.25303 5.27524 2.01694 9.25049 2.01694C13.2257 2.01694 16.4618 5.25303 16.4618 9.22827C16.4618 13.2035 13.2257 16.4396 9.25049 16.4396ZM9.25049 0.214111C8.06673 0.214111 6.89457 0.44727 5.80092 0.900273C4.70727 1.35328 3.71356 2.01726 2.87651 2.8543C1.18603 4.54478 0.236328 6.83757 0.236328 9.22827C0.236328 11.619 1.18603 13.9118 2.87651 15.6022C3.71356 16.4393 4.70727 17.1033 5.80092 17.5563C6.89457 18.0093 8.06673 18.2424 9.25049 18.2424C11.6412 18.2424 13.934 17.2927 15.6245 15.6022C17.3149 13.9118 18.2646 11.619 18.2646 9.22827C18.2646 8.04452 18.0315 6.87235 17.5785 5.7787C17.1255 4.68505 16.4615 3.69134 15.6245 2.8543C14.7874 2.01726 13.7937 1.35328 12.7001 0.900273C11.6064 0.44727 10.4342 0.214111 9.25049 0.214111ZM8.34907 13.7354H10.1519V8.32686H8.34907V13.7354Z" fill="#EAEAEA"/>
</svg>
