<svg width="42" height="42" viewBox="0 0 42 42" fill="none" xmlns="http://www.w3.org/2000/svg">
<path d="M21.0003 36.0001C15.792 36.0001 11.1878 33.3334 8.50033 29.3334C8.56283 25.1668 16.8337 22.8751 21.0003 22.8751C25.167 22.8751 33.4378 25.1668 33.5003 29.3334C30.8128 33.3334 26.2087 36.0001 21.0003 36.0001ZM21.0003 6.41675C22.6579 6.41675 24.2476 7.07523 25.4198 8.24733C26.5919 9.41944 27.2503 11.0091 27.2503 12.6668C27.2503 14.3244 26.5919 15.9141 25.4198 17.0862C24.2476 18.2583 22.6579 18.9168 21.0003 18.9168C19.3427 18.9168 17.753 18.2583 16.5809 17.0862C15.4088 15.9141 14.7503 14.3244 14.7503 12.6668C14.7503 11.0091 15.4088 9.41944 16.5809 8.24733C17.753 7.07523 19.3427 6.41675 21.0003 6.41675ZM21.0003 0.166748C18.2645 0.166748 15.5554 0.705618 13.0278 1.75259C10.5001 2.79957 8.20349 4.33414 6.26894 6.26869C2.36193 10.1757 0.166992 15.4747 0.166992 21.0001C0.166992 26.5254 2.36193 31.8245 6.26894 35.7315C8.20349 37.666 10.5001 39.2006 13.0278 40.2476C15.5554 41.2946 18.2645 41.8334 21.0003 41.8334C26.5257 41.8334 31.8247 39.6385 35.7317 35.7315C39.6387 31.8245 41.8337 26.5254 41.8337 21.0001C41.8337 9.47925 32.4587 0.166748 21.0003 0.166748Z" fill="#A7A7A7"/>
</svg>
