<svg width="45" height="45" viewBox="0 0 45 45" fill="none" xmlns="http://www.w3.org/2000/svg">
<path d="M4.95915 44.544C3.60989 44.544 2.45483 44.0636 1.49399 43.1027C0.533154 42.1419 0.0527344 40.9868 0.0527344 39.6376V5.29265C0.0527344 3.94338 0.533154 2.78833 1.49399 1.82749C2.45483 0.86665 3.60989 0.38623 4.95915 0.38623H39.3041C40.6533 0.38623 41.8084 0.86665 42.7692 1.82749C43.7301 2.78833 44.2105 3.94338 44.2105 5.29265V39.6376C44.2105 40.9868 43.7301 42.1419 42.7692 43.1027C41.8084 44.0636 40.6533 44.544 39.3041 44.544H4.95915ZM22.1316 32.2779C23.44 32.2779 24.6461 31.9406 25.7501 31.266C26.854 30.5914 27.7535 29.7021 28.4486 28.5981C28.6939 28.2301 29.0006 27.9337 29.3686 27.7088C29.7366 27.484 30.1454 27.3715 30.5952 27.3715H39.3041V5.29265H4.95915V27.3715H13.668C14.1178 27.3715 14.5267 27.484 14.8946 27.7088C15.2626 27.9337 15.5693 28.2301 15.8146 28.5981C16.5097 29.7021 17.4092 30.5914 18.5131 31.266C19.6171 31.9406 20.8232 32.2779 22.1316 32.2779ZM19.6784 17.9267V10.1991C19.6784 9.50399 19.9135 8.92135 20.3837 8.45115C20.8539 7.98095 21.4365 7.74585 22.1316 7.74585C22.8267 7.74585 23.4093 7.98095 23.8795 8.45115C24.3497 8.92135 24.5848 9.50399 24.5848 10.1991V17.9267L26.7314 15.7801C26.9767 15.5348 27.2527 15.3508 27.5593 15.2281C27.866 15.1055 28.1726 15.0544 28.4793 15.0748C28.7859 15.0953 29.0926 15.1668 29.3992 15.2895C29.7059 15.4121 29.9819 15.5961 30.2272 15.8414C30.6769 16.3321 30.912 16.9045 30.9325 17.5587C30.9529 18.2129 30.7178 18.7853 30.2272 19.2759L23.8489 25.6543C23.6035 25.8996 23.3378 26.0734 23.0516 26.1756C22.7654 26.2778 22.4587 26.3289 22.1316 26.3289C21.8045 26.3289 21.4979 26.2778 21.2117 26.1756C20.9254 26.0734 20.6597 25.8996 20.4144 25.6543L14.036 19.2759C13.7907 19.0306 13.6067 18.7546 13.484 18.448C13.3614 18.1413 13.3001 17.8347 13.3001 17.528C13.3001 17.2214 13.3614 16.9249 13.484 16.6387C13.6067 16.3525 13.7907 16.0868 14.036 15.8414C14.5267 15.3508 15.1093 15.0953 15.7839 15.0748C16.4586 15.0544 17.0412 15.2895 17.5318 15.7801L19.6784 17.9267Z" fill="#245501"/>
</svg>
