<svg width="45" height="39" viewBox="0 0 45 39" fill="none" xmlns="http://www.w3.org/2000/svg">
<path d="M4.28752 38.7022C3.11194 38.7022 2.10558 38.2836 1.26842 37.4464C0.431272 36.6093 0.0126953 35.6029 0.0126953 34.4274V10.9158C0.0126953 10.3102 0.217531 9.80258 0.627201 9.39291C1.03687 8.98324 1.54451 8.77841 2.15011 8.77841C2.75571 8.77841 3.26334 8.98324 3.67301 9.39291C4.08268 9.80258 4.28752 10.3102 4.28752 10.9158V34.4274H34.2113C34.8169 34.4274 35.3245 34.6322 35.7342 35.0419C36.1439 35.4515 36.3487 35.9592 36.3487 36.5648C36.3487 37.1704 36.1439 37.678 35.7342 38.0877C35.3245 38.4973 34.8169 38.7022 34.2113 38.7022H4.28752ZM12.8372 30.1525C11.6616 30.1525 10.6552 29.734 9.81807 28.8968C8.98092 28.0596 8.56234 27.0533 8.56234 25.8777V2.36617C8.56234 1.76057 8.76718 1.25294 9.17685 0.843266C9.58652 0.433595 10.0942 0.22876 10.6998 0.22876H42.7609C43.3665 0.22876 43.8742 0.433595 44.2838 0.843266C44.6935 1.25294 44.8983 1.76057 44.8983 2.36617V25.8777C44.8983 27.0533 44.4798 28.0596 43.6426 28.8968C42.8055 29.734 41.7991 30.1525 40.6235 30.1525H12.8372ZM19.2494 19.4655H23.5242C24.1298 19.4655 24.6375 19.2606 25.0471 18.851C25.4568 18.4413 25.6616 17.9337 25.6616 17.3281V10.9158C25.6616 10.3102 25.4568 9.80258 25.0471 9.39291C24.6375 8.98324 24.1298 8.77841 23.5242 8.77841H19.2494C18.6438 8.77841 18.1362 8.98324 17.7265 9.39291C17.3168 9.80258 17.112 10.3102 17.112 10.9158V17.3281C17.112 17.9337 17.3168 18.4413 17.7265 18.851C18.1362 19.2606 18.6438 19.4655 19.2494 19.4655ZM29.9365 19.4655H34.2113C34.8169 19.4655 35.3245 19.2606 35.7342 18.851C36.1439 18.4413 36.3487 17.9337 36.3487 17.3281C36.3487 16.7225 36.1439 16.2148 35.7342 15.8052C35.3245 15.3955 34.8169 15.1906 34.2113 15.1906H29.9365C29.3309 15.1906 28.8232 15.3955 28.4136 15.8052C28.0039 16.2148 27.7991 16.7225 27.7991 17.3281C27.7991 17.9337 28.0039 18.4413 28.4136 18.851C28.8232 19.2606 29.3309 19.4655 29.9365 19.4655ZM29.9365 13.0532H34.2113C34.8169 13.0532 35.3245 12.8484 35.7342 12.4387C36.1439 12.0291 36.3487 11.5214 36.3487 10.9158C36.3487 10.3102 36.1439 9.80258 35.7342 9.39291C35.3245 8.98324 34.8169 8.77841 34.2113 8.77841H29.9365C29.3309 8.77841 28.8232 8.98324 28.4136 9.39291C28.0039 9.80258 27.7991 10.3102 27.7991 10.9158C27.7991 11.5214 28.0039 12.0291 28.4136 12.4387C28.8232 12.8484 29.3309 13.0532 29.9365 13.0532Z" fill="#245501"/>
</svg>
