<svg width="93" height="93" viewBox="0 0 93 93" fill="none" xmlns="http://www.w3.org/2000/svg">
<rect x="0.232422" y="0.325195" width="92.5344" height="92.5344" rx="12" fill="#245501"/>
<path d="M49.4294 47.7643L46.7339 44.2485C46.4995 43.936 46.187 43.7797 45.7964 43.7797C45.4057 43.7797 45.0932 43.936 44.8588 44.2485L40.9328 49.4051C40.6203 49.7957 40.5714 50.2059 40.7863 50.6356C41.0011 51.0653 41.3625 51.2802 41.8703 51.2802H60.5043C61.0122 51.2802 61.3735 51.0653 61.5884 50.6356C61.8033 50.2059 61.7544 49.7957 61.4419 49.4051L55.7579 41.9632C55.5236 41.6507 55.211 41.4944 54.8204 41.4944C54.4297 41.4944 54.1172 41.6507 53.8828 41.9632L49.4294 47.7643ZM37.1239 60.6558C35.8348 60.6558 34.7312 60.1968 33.8132 59.2787C32.8952 58.3607 32.4361 57.2571 32.4361 55.968V27.8412C32.4361 26.552 32.8952 25.4484 33.8132 24.5304C34.7312 23.6124 35.8348 23.1534 37.1239 23.1534H65.2507C66.5399 23.1534 67.6435 23.6124 68.5615 24.5304C69.4795 25.4484 69.9385 26.552 69.9385 27.8412V55.968C69.9385 57.2571 69.4795 58.3607 68.5615 59.2787C67.6435 60.1968 66.5399 60.6558 65.2507 60.6558H37.1239ZM27.7483 70.0314C26.4592 70.0314 25.3556 69.5724 24.4376 68.6543C23.5196 67.7363 23.0605 66.6327 23.0605 65.3436V34.8729C23.0605 34.2088 23.2852 33.6521 23.7344 33.2029C24.1837 32.7536 24.7403 32.529 25.4044 32.529C26.0686 32.529 26.6252 32.7536 27.0745 33.2029C27.5237 33.6521 27.7483 34.2088 27.7483 34.8729V65.3436H58.219C58.8831 65.3436 59.4398 65.5682 59.8891 66.0174C60.3383 66.4667 60.5629 67.0234 60.5629 67.6875C60.5629 68.3516 60.3383 68.9083 59.8891 69.3575C59.4398 69.8067 58.8831 70.0314 58.219 70.0314H27.7483Z" fill="white"/>
</svg>
