<svg width="17" height="17" viewBox="0 0 17 17" fill="none" xmlns="http://www.w3.org/2000/svg">
<mask id="mask0_473_1286" style="mask-type:alpha" maskUnits="userSpaceOnUse" x="0" y="0" width="17" height="17">
<rect x="0.00976562" y="0.299866" width="16.5204" height="16.5204" fill="#D9D9D9"/>
</mask>
<g mask="url(#mask0_473_1286)">
<path d="M2.07396 12.6902C1.69537 12.6902 1.37127 12.5554 1.10167 12.2858C0.832067 12.0162 0.697266 11.6921 0.697266 11.3135C0.697266 10.9349 0.832067 10.6108 1.10167 10.3412C1.37127 10.0716 1.69537 9.93679 2.07396 9.93679H2.25466C2.30628 9.93679 2.36078 9.94826 2.41814 9.9712L5.55013 6.83922C5.52718 6.78185 5.51571 6.72736 5.51571 6.67573V6.49504C5.51571 6.11645 5.65051 5.79235 5.92012 5.52275C6.18972 5.25314 6.51382 5.11834 6.89241 5.11834C7.271 5.11834 7.5951 5.25314 7.8647 5.52275C8.13431 5.79235 8.26911 6.11645 8.26911 6.49504C8.26911 6.51799 8.25764 6.63271 8.23469 6.83922L9.98998 8.59451C10.0473 8.57156 10.1018 8.56009 10.1535 8.56009H10.5148C10.5665 8.56009 10.621 8.57156 10.6783 8.59451L13.122 6.15087C13.099 6.0935 13.0876 6.03901 13.0876 5.98738V5.80669C13.0876 5.4281 13.2224 5.104 13.492 4.8344C13.7616 4.56479 14.0857 4.42999 14.4643 4.42999C14.8428 4.42999 15.1669 4.56479 15.4365 4.8344C15.7062 5.104 15.841 5.4281 15.841 5.80669C15.841 6.18528 15.7062 6.50938 15.4365 6.77898C15.1669 7.04859 14.8428 7.18339 14.4643 7.18339H14.2836C14.2319 7.18339 14.1774 7.17192 14.1201 7.14897L11.6764 9.59261C11.6994 9.64997 11.7109 9.70447 11.7109 9.7561V9.93679C11.7109 10.3154 11.5761 10.6395 11.3065 10.9091C11.0368 11.1787 10.7127 11.3135 10.3342 11.3135C9.95557 11.3135 9.63147 11.1787 9.36186 10.9091C9.09226 10.6395 8.95746 10.3154 8.95746 9.93679V9.7561C8.95746 9.70447 8.96893 9.64997 8.99188 9.59261L7.23659 7.83732C7.17922 7.86027 7.12473 7.87174 7.0731 7.87174H6.89241C6.86947 7.87174 6.75474 7.86027 6.54824 7.83732L3.41625 10.9693C3.43919 11.0267 3.45066 11.0812 3.45066 11.1328V11.3135C3.45066 11.6921 3.31586 12.0162 3.04626 12.2858C2.77665 12.5554 2.45256 12.6902 2.07396 12.6902Z" fill="#E2E2E2"/>
</g>
</svg>
