<svg width="18" height="18" viewBox="0 0 18 18" fill="none" xmlns="http://www.w3.org/2000/svg">
<path d="M6.63574 0.337402C8.35965 0.337402 10.0129 1.02222 11.2319 2.24121C12.4509 3.46019 13.1357 5.11349 13.1357 6.8374C13.1357 8.4474 12.5457 9.9274 11.5757 11.0674L11.8457 11.3374H12.6357L17.6357 16.3374L16.1357 17.8374L11.1357 12.8374V12.0474L10.8657 11.7774C9.72574 12.7474 8.24574 13.3374 6.63574 13.3374C4.91183 13.3374 3.25853 12.6526 2.03955 11.4336C0.820561 10.2146 0.135742 8.56131 0.135742 6.8374C0.135742 5.11349 0.820561 3.46019 2.03955 2.24121C3.25853 1.02222 4.91183 0.337402 6.63574 0.337402ZM6.63574 2.3374C4.13574 2.3374 2.13574 4.3374 2.13574 6.8374C2.13574 9.3374 4.13574 11.3374 6.63574 11.3374C9.13574 11.3374 11.1357 9.3374 11.1357 6.8374C11.1357 4.3374 9.13574 2.3374 6.63574 2.3374Z" fill="white"/>
</svg>
