<svg width="25" height="25" viewBox="0 0 25 25" fill="none" xmlns="http://www.w3.org/2000/svg">
<path d="M18.2534 14.5H20.2534V17.5H23.2534V19.5H20.2534V22.5H18.2534V19.5H15.2534V17.5H18.2534V14.5ZM12.2534 3.5C16.6734 3.5 20.2534 5.29 20.2534 7.5C20.2534 9.71 16.6734 11.5 12.2534 11.5C7.83342 11.5 4.25342 9.71 4.25342 7.5C4.25342 5.29 7.83342 3.5 12.2534 3.5ZM4.25342 9.5C4.25342 11.71 7.83342 13.5 12.2534 13.5C16.6734 13.5 20.2534 11.71 20.2534 9.5V12.58L19.2534 12.5C16.6634 12.5 14.4534 14.14 13.6134 16.44L12.2534 16.5C7.83342 16.5 4.25342 14.71 4.25342 12.5V9.5ZM4.25342 14.5C4.25342 16.71 7.83342 18.5 12.2534 18.5H13.2534C13.2534 19.55 13.5234 20.54 14.0034 21.4L12.2534 21.5C7.83342 21.5 4.25342 19.71 4.25342 17.5V14.5Z" fill="#2C5537"/>
</svg>
