<svg width="25" height="25" viewBox="0 0 25 25" fill="none" xmlns="http://www.w3.org/2000/svg">
<path d="M17.5771 14.5H19.5771V17.5H22.5771V19.5H19.5771V22.5H17.5771V19.5H14.5771V17.5H17.5771V14.5ZM20.5771 11.5V8.5H4.57715V11.5H20.5771ZM13.5771 13.5V15.18C12.9471 16.13 12.5771 17.27 12.5771 18.5C12.5771 19.59 12.8671 20.62 13.3771 21.5H4.57715C4.04672 21.5 3.53801 21.2893 3.16293 20.9142C2.78786 20.5391 2.57715 20.0304 2.57715 19.5V3.5L4.24715 5.17L5.90715 3.5L7.57715 5.17L9.24715 3.5L10.9071 5.17L12.5771 3.5L14.2471 5.17L15.9071 3.5L17.5771 5.17L19.2471 3.5L20.9071 5.17L22.5771 3.5V14C21.5071 13.08 20.1071 12.5 18.5771 12.5C17.3471 12.5 16.2071 12.87 15.2571 13.5H13.5771ZM11.5771 19.5V13.5H4.57715V19.5H11.5771Z" fill="white"/>
</svg>
