<svg width="24" height="25" viewBox="0 0 24 25" fill="none" xmlns="http://www.w3.org/2000/svg">
<path fill-rule="evenodd" clip-rule="evenodd" d="M6.62025 9.0462C7.59856 10.0245 8.7746 10.5136 10.1484 10.5136C11.5222 10.5136 12.6982 10.0245 13.6765 9.0462C14.6548 8.06789 15.144 6.89185 15.144 5.51807C15.144 4.14428 14.6548 2.96824 13.6765 1.98994C12.6982 1.01164 11.5222 0.522491 10.1484 0.522491C8.7746 0.522491 7.59856 1.01164 6.62025 1.98994C5.64195 2.96824 5.1528 4.14428 5.1528 5.51807C5.1528 6.89185 5.64195 8.06789 6.62025 9.0462ZM0.157227 17.0079V20.5048H11.0119C10.3717 19.5259 9.99959 18.3559 9.99959 17.099C9.99959 14.962 11.0754 13.0763 12.7149 11.9538C11.8676 11.8263 11.0121 11.7625 10.1484 11.7625C8.7746 11.7625 7.42163 11.9239 6.08947 12.2465C4.75732 12.5691 3.44598 13.0531 2.15546 13.6983C1.55183 14.0106 1.06788 14.4633 0.703618 15.0565C0.339357 15.6497 0.157227 16.3002 0.157227 17.0079ZM12.9617 24.4555C13.1932 24.687 13.4714 24.8027 13.7965 24.8027H22.0708C22.3959 24.8027 22.6741 24.687 22.9056 24.4555C23.1371 24.224 23.2529 23.9457 23.2529 23.6207V17.1194L20.2977 14.1643H13.7965C13.4714 14.1643 13.1932 14.2801 12.9617 14.5115C12.7302 14.743 12.6145 15.0213 12.6145 15.3464V23.6207C12.6145 23.9457 12.7302 24.224 12.9617 24.4555ZM20.8888 21.2566V22.4386H14.9785V21.2566H20.8888ZM20.8888 18.8925V20.0745H14.9785V18.8925H20.8888ZM22.0708 17.7104H19.7067V15.3464L22.0708 17.7104ZM17.9337 17.7104H14.9785V16.5284H17.9337V17.7104Z" fill="white"/>
</svg>
