<svg width="45" height="45" viewBox="0 0 45 45" fill="none" xmlns="http://www.w3.org/2000/svg">
<path d="M5.40642 44.6577C4.05715 44.6577 2.9021 44.1773 1.94126 43.2165C0.98042 42.2556 0.5 41.1006 0.5 39.7513C0.5 39.7513 0.5 6.75568 0.5 5.40642C0.5 4.05715 0.98042 2.9021 1.94126 1.94126C2.9021 0.98042 4.05715 0.5 5.40642 0.5H39.7513C41.1006 0.5 42.2556 0.98042 43.2165 1.94126C44.1773 2.9021 44.6577 4.05715 44.6577 5.40642V39.7513C44.6577 41.1006 44.1773 42.2556 43.2165 43.2165C42.2556 44.1773 41.1006 44.6577 39.7513 44.6577H5.40642ZM22.5789 32.3917C23.8872 32.3917 25.0934 32.0544 26.1974 31.3798C27.3013 30.7051 28.2008 29.8158 28.8959 28.7119C29.1412 28.3439 29.4479 28.0475 29.8158 27.8226C30.1838 27.5977 30.5927 27.4853 31.0424 27.4853H39.7513V5.40642H5.40642V27.4853H14.1153C14.5651 27.4853 14.9739 27.5977 15.3419 27.8226C15.7099 28.0475 16.0165 28.3439 16.2619 28.7119C16.9569 29.8158 17.8564 30.7051 18.9604 31.3798C20.0643 32.0544 21.2705 32.3917 22.5789 32.3917Z" fill="#245501"/>
<path d="M25.2554 24.1298V16.4022L27.402 18.5488C27.8926 19.0394 28.4753 19.2745 29.1499 19.254C29.8245 19.2336 30.4072 18.9781 30.8978 18.4874C31.1431 18.2421 31.3271 17.9763 31.4498 17.6901C31.5725 17.4039 31.6338 17.1075 31.6338 16.8008C31.6338 16.4942 31.5725 16.1875 31.4498 15.8809C31.3271 15.5742 31.1431 15.2983 30.8978 15.0529L24.5195 8.67459C24.2742 8.42927 24.0084 8.2555 23.7222 8.15328C23.436 8.05107 23.1293 7.99996 22.8022 7.99996C22.4751 7.99996 22.1685 8.05107 21.8823 8.15328C21.5961 8.2555 21.3303 8.42927 21.085 8.67459L14.7067 15.0529C14.216 15.5436 13.9809 16.116 14.0014 16.7702C14.0218 17.4244 14.2569 17.9968 14.7067 18.4874C14.952 18.7327 15.228 18.9167 15.5346 19.0394C15.8413 19.1621 16.1479 19.2336 16.4546 19.254C16.7612 19.2745 17.0679 19.2234 17.3745 19.1007C17.6812 18.9781 17.9572 18.7941 18.2025 18.5488L20.349 16.4022V24.1298C20.349 24.8249 20.5841 25.4075 21.0543 25.8777C21.5245 26.3479 22.1072 26.583 22.8022 26.583C23.4973 26.583 24.08 26.3479 24.5502 25.8777C25.0203 25.4075 25.2554 24.8249 25.2554 24.1298Z" fill="#245501"/>
</svg>
