<svg width="17" height="17" viewBox="0 0 17 17" fill="none" xmlns="http://www.w3.org/2000/svg">
<mask id="mask0_473_1274" style="mask-type:alpha" maskUnits="userSpaceOnUse" x="0" y="0" width="17" height="17">
<rect x="0.394531" y="0.300049" width="16.52" height="16.52" fill="#D9D9D9"/>
</mask>
<g mask="url(#mask0_473_1274)">
<path d="M6.5901 12.69H10.7201C10.9151 12.69 11.0786 12.6241 11.2105 12.4921C11.3425 12.3602 11.4084 12.1967 11.4084 12.0017C11.4084 11.8067 11.3425 11.6432 11.2105 11.5113C11.0786 11.3793 10.9151 11.3134 10.7201 11.3134H6.5901C6.39508 11.3134 6.2316 11.3793 6.09967 11.5113C5.96774 11.6432 5.90177 11.8067 5.90177 12.0017C5.90177 12.1967 5.96774 12.3602 6.09967 12.4921C6.2316 12.6241 6.39508 12.69 6.5901 12.69ZM6.5901 9.9367H10.7201C10.9151 9.9367 11.0786 9.87073 11.2105 9.7388C11.3425 9.60687 11.4084 9.44339 11.4084 9.24836C11.4084 9.05334 11.3425 8.88986 11.2105 8.75793C11.0786 8.626 10.9151 8.56003 10.7201 8.56003H6.5901C6.39508 8.56003 6.2316 8.626 6.09967 8.75793C5.96774 8.88986 5.90177 9.05334 5.90177 9.24836C5.90177 9.44339 5.96774 9.60687 6.09967 9.7388C6.2316 9.87073 6.39508 9.9367 6.5901 9.9367ZM4.5251 15.4434C4.14652 15.4434 3.82243 15.3086 3.55283 15.039C3.28324 14.7694 3.14844 14.4453 3.14844 14.0667V3.05336C3.14844 2.67478 3.28324 2.35069 3.55283 2.08109C3.82243 1.8115 4.14652 1.6767 4.5251 1.6767H9.4639C9.64745 1.6767 9.8224 1.71111 9.98875 1.77995C10.1551 1.84878 10.3014 1.94629 10.4276 2.07249L13.766 5.41091C13.8922 5.5371 13.9897 5.68337 14.0585 5.84972C14.1274 6.01607 14.1618 6.19102 14.1618 6.37457V14.0667C14.1618 14.4453 14.027 14.7694 13.7574 15.039C13.4878 15.3086 13.1637 15.4434 12.7851 15.4434H4.5251ZM9.34344 5.8067C9.34344 6.00172 9.4094 6.1652 9.54133 6.29713C9.67326 6.42907 9.83674 6.49503 10.0318 6.49503H12.7851L9.34344 3.05336V5.8067Z" fill="#E2E2E2"/>
</g>
</svg>
