<svg width="72" height="53" viewBox="0 0 72 53" fill="none" xmlns="http://www.w3.org/2000/svg">
<mask id="mask0_1897_1495" style="mask-type:alpha" maskUnits="userSpaceOnUse" x="19" y="0" width="53" height="53">
<rect x="19.2268" y="0.361572" width="52.6109" height="52.6109" fill="#D9D9D9"/>
</mask>
<g mask="url(#mask0_1897_1495)">
<path d="M23.6111 39.8198V38.0661C23.6111 36.8239 23.9216 35.6822 24.5427 34.6409C25.1638 33.5997 26.0224 32.805 27.1185 32.257C29.201 31.1975 31.3657 30.3572 33.6126 29.7361C35.8596 29.115 38.1521 28.8044 40.4904 28.8044C41.0019 28.8044 41.4038 29.0328 41.6961 29.4894C41.9884 29.9461 42.0432 30.4302 41.8605 30.9417C41.6413 31.709 41.4769 32.4762 41.3673 33.2434C41.2577 34.0107 41.2028 34.7962 41.2028 35.6C41.2028 36.6595 41.3125 37.6825 41.5317 38.6689C41.7509 39.6554 42.0614 40.6236 42.4633 41.5735C42.7556 42.1946 42.7282 42.7883 42.3811 43.3546C42.034 43.9209 41.5499 44.204 40.9288 44.204H27.9953C26.7897 44.204 25.7575 43.7748 24.899 42.9162C24.0404 42.0576 23.6111 41.0255 23.6111 39.8198ZM56.4929 39.8198C57.6986 39.8198 58.7307 39.3905 59.5893 38.5319C60.4478 37.6734 60.8771 36.6412 60.8771 35.4356C60.8771 34.2299 60.4478 33.1978 59.5893 32.3392C58.7307 31.4806 57.6986 31.0513 56.4929 31.0513C55.2872 31.0513 54.2551 31.4806 53.3965 32.3392C52.5379 33.1978 52.1086 34.2299 52.1086 35.4356C52.1086 36.6412 52.5379 37.6734 53.3965 38.5319C54.2551 39.3905 55.2872 39.8198 56.4929 39.8198ZM41.148 26.6671C38.7367 26.6671 36.6725 25.8085 34.9553 24.0913C33.2381 22.3742 32.3796 20.3099 32.3796 17.8986C32.3796 15.4873 33.2381 13.423 34.9553 11.7059C36.6725 9.98871 38.7367 9.13013 41.148 9.13013C43.5594 9.13013 45.6236 9.98871 47.3408 11.7059C49.0579 13.423 49.9165 15.4873 49.9165 17.8986C49.9165 20.3099 49.0579 22.3742 47.3408 24.0913C45.6236 25.8085 43.5594 26.6671 41.148 26.6671ZM53.9719 44.6425L53.6431 43.108C53.2047 42.9253 52.7937 42.7335 52.4101 42.5326C52.0264 42.3316 51.6337 42.085 51.2318 41.7927L49.6425 42.2859C49.1676 42.4321 48.7017 42.4138 48.245 42.2311C47.7883 42.0485 47.4321 41.7562 47.1764 41.3543L46.738 40.5871C46.4822 40.1486 46.3909 39.6737 46.4639 39.1622C46.537 38.6507 46.7745 38.2305 47.1764 37.9017L48.382 36.8604C48.309 36.349 48.2724 35.874 48.2724 35.4356C48.2724 34.9971 48.309 34.5222 48.382 34.0107L47.1764 32.9694C46.7745 32.6406 46.537 32.2296 46.4639 31.7364C46.3909 31.2431 46.4822 30.7773 46.738 30.3389L47.2312 29.5168C47.4869 29.115 47.834 28.8227 48.2724 28.64C48.7109 28.4573 49.1676 28.4391 49.6425 28.5852L51.2318 29.0784C51.6337 28.7861 52.0264 28.5395 52.4101 28.3386C52.7937 28.1376 53.2047 27.9458 53.6431 27.7631L53.9719 26.1739C54.0816 25.6624 54.3282 25.2513 54.7118 24.9408C55.0954 24.6302 55.543 24.475 56.0545 24.475H56.9313C57.4428 24.475 57.8904 24.6394 58.274 24.9682C58.6576 25.297 58.9042 25.7172 59.0138 26.2287L59.3426 27.7631C59.7811 27.9458 60.1921 28.1468 60.5757 28.366C60.9593 28.5852 61.3521 28.8592 61.754 29.188L63.2337 28.6948C63.7452 28.5121 64.2384 28.5121 64.7133 28.6948C65.1883 28.8775 65.5536 29.188 65.8094 29.6264L66.2478 30.3937C66.5036 30.8321 66.5949 31.3071 66.5218 31.8186C66.4488 32.3301 66.2113 32.7502 65.8094 33.079L64.6037 34.1203C64.6768 34.5587 64.7133 35.0154 64.7133 35.4904C64.7133 35.9653 64.6768 36.422 64.6037 36.8604L65.8094 37.9017C66.2113 38.2305 66.4488 38.6415 66.5218 39.1348C66.5949 39.628 66.5036 40.0938 66.2478 40.5322L65.7546 41.3543C65.4988 41.7562 65.1518 42.0485 64.7133 42.2311C64.2749 42.4138 63.8182 42.4321 63.3433 42.2859L61.754 41.7927C61.3521 42.085 60.9593 42.3316 60.5757 42.5326C60.1921 42.7335 59.7811 42.9253 59.3426 43.108L59.0138 44.6973C58.9042 45.2088 58.6576 45.6198 58.274 45.9303C57.8904 46.2409 57.4428 46.3962 56.9313 46.3962H56.0545C55.543 46.3962 55.0954 46.2318 54.7118 45.9029C54.3282 45.5741 54.0816 45.154 53.9719 44.6425Z" fill="#245501"/>
</g>
<path fill-rule="evenodd" clip-rule="evenodd" d="M11.7967 21.0445C13.5139 22.7616 15.5781 23.6202 17.9895 23.6202C20.4008 23.6202 22.4651 22.7616 24.1822 21.0445C25.8994 19.3273 26.758 17.2631 26.758 14.8517C26.758 12.4404 25.8994 10.3762 24.1822 8.65899C22.4651 6.94183 20.4008 6.08325 17.9895 6.08325C15.5781 6.08325 13.5139 6.94183 11.7967 8.65899C10.0796 10.3762 9.22099 12.4404 9.22099 14.8517C9.22099 17.2631 10.0796 19.3273 11.7967 21.0445ZM0.452515 35.0192V36.7729C0.452515 37.9786 0.881805 39.0107 1.74039 39.8693C2.59897 40.7279 3.63109 41.1572 4.83675 41.1572H19.853C19.626 40.2515 19.5054 39.3036 19.5054 38.3275C19.5054 33.2037 22.8278 28.856 27.4358 27.3211C26.6658 27.07 25.8919 26.8502 25.1139 26.6618C22.7756 26.0955 20.4008 25.8123 17.9895 25.8123C15.5781 25.8123 13.2033 26.0955 10.8651 26.6618C8.52682 27.2281 6.2251 28.0775 3.95991 29.2101C2.90038 29.7582 2.05094 30.5528 1.41157 31.594C0.772199 32.6353 0.452515 33.777 0.452515 35.0192Z" fill="#245501"/>
</svg>
