<svg width="25" height="25" viewBox="0 0 25 25" fill="none" xmlns="http://www.w3.org/2000/svg">
<path d="M15.7529 14.5C13.0829 14.5 7.75293 15.83 7.75293 18.5V20.5H23.7529V18.5C23.7529 15.83 18.4229 14.5 15.7529 14.5ZM6.75293 10.5V7.5H4.75293V10.5H1.75293V12.5H4.75293V15.5H6.75293V12.5H9.75293V10.5M15.7529 12.5C16.8138 12.5 17.8312 12.0786 18.5814 11.3284C19.3315 10.5783 19.7529 9.56087 19.7529 8.5C19.7529 7.43913 19.3315 6.42172 18.5814 5.67157C17.8312 4.92143 16.8138 4.5 15.7529 4.5C14.6921 4.5 13.6746 4.92143 12.9245 5.67157C12.1744 6.42172 11.7529 7.43913 11.7529 8.5C11.7529 9.56087 12.1744 10.5783 12.9245 11.3284C13.6746 12.0786 14.6921 12.5 15.7529 12.5Z" fill="#68655C"/>
</svg>
