<svg width="25" height="24" viewBox="0 0 25 24" fill="none" xmlns="http://www.w3.org/2000/svg">
<path d="M10.25 3C11.9739 3 13.6272 3.68482 14.8462 4.90381C16.0652 6.12279 16.75 7.77609 16.75 9.5C16.75 11.11 16.16 12.59 15.19 13.73L15.46 14H16.25L21.25 19L19.75 20.5L14.75 15.5V14.71L14.48 14.44C13.34 15.41 11.86 16 10.25 16C8.52609 16 6.87279 15.3152 5.65381 14.0962C4.43482 12.8772 3.75 11.2239 3.75 9.5C3.75 7.77609 4.43482 6.12279 5.65381 4.90381C6.87279 3.68482 8.52609 3 10.25 3ZM10.25 5C7.75 5 5.75 7 5.75 9.5C5.75 12 7.75 14 10.25 14C12.75 14 14.75 12 14.75 9.5C14.75 7 12.75 5 10.25 5Z" fill="white"/>
</svg>
