<svg width="45" height="45" viewBox="0 0 45 45" fill="none" xmlns="http://www.w3.org/2000/svg">
<path d="M5.71745 44.9544C4.36819 44.9544 3.21313 44.474 2.25229 43.5131C1.29146 42.5523 0.811035 41.3972 0.811035 40.048V5.70305C0.811035 4.35378 1.29146 3.19873 2.25229 2.23789C3.21313 1.27705 4.36819 0.796631 5.71745 0.796631H40.0624C41.4116 0.796631 42.5667 1.27705 43.5275 2.23789C44.4884 3.19873 44.9688 4.35378 44.9688 5.70305V40.048C44.9688 41.3972 44.4884 42.5523 43.5275 43.5131C42.5667 44.474 41.4116 44.9544 40.0624 44.9544H5.71745ZM22.8899 32.6883C24.1983 32.6883 25.4044 32.351 26.5084 31.6764C27.6123 31.0018 28.5118 30.1125 29.2069 29.0085C29.4522 28.6405 29.7589 28.3441 30.1269 28.1192C30.4948 27.8944 30.9037 27.7819 31.3535 27.7819H40.0624V5.70305H5.71745V27.7819H14.4263C14.8761 27.7819 15.285 27.8944 15.6529 28.1192C16.0209 28.3441 16.3276 28.6405 16.5729 29.0085C17.268 30.1125 18.1675 31.0018 19.2714 31.6764C20.3754 32.351 21.5815 32.6883 22.8899 32.6883ZM20.4367 18.3371V10.6095C20.4367 9.91439 20.6718 9.33175 21.142 8.86155C21.6122 8.39135 22.1948 8.15625 22.8899 8.15625C23.585 8.15625 24.1676 8.39135 24.6378 8.86155C25.108 9.33175 25.3431 9.91439 25.3431 10.6095V18.3371L27.4897 16.1905C27.735 15.9452 28.011 15.7612 28.3176 15.6385C28.6243 15.5159 28.9309 15.4648 29.2376 15.4852C29.5442 15.5057 29.8509 15.5772 30.1575 15.6999C30.4642 15.8225 30.7402 16.0065 30.9855 16.2518C31.4352 16.7425 31.6703 17.3149 31.6908 17.9691C31.7112 18.6233 31.4761 19.1957 30.9855 19.6863L24.6072 26.0647C24.3618 26.31 24.0961 26.4838 23.8099 26.586C23.5237 26.6882 23.217 26.7393 22.8899 26.7393C22.5628 26.7393 22.2562 26.6882 21.97 26.586C21.6837 26.4838 21.418 26.31 21.1727 26.0647L14.7943 19.6863C14.549 19.441 14.365 19.165 14.2423 18.8584C14.1197 18.5517 14.0584 18.2451 14.0584 17.9384C14.0584 17.6318 14.1197 17.3353 14.2423 17.0491C14.365 16.7629 14.549 16.4972 14.7943 16.2518C15.285 15.7612 15.8676 15.5057 16.5422 15.4852C17.2169 15.4648 17.7995 15.6999 18.2901 16.1905L20.4367 18.3371Z" fill="#245501"/>
</svg>
