<svg width="22" height="21" viewBox="0 0 22 21" fill="none" xmlns="http://www.w3.org/2000/svg">
<path d="M9.23234 5.00292V8.25902L8.32787 7.35455C8.12113 7.14781 7.87564 7.04875 7.59137 7.05736C7.30711 7.06598 7.06161 7.17365 6.85488 7.38039C6.75151 7.48376 6.67398 7.59574 6.6223 7.71633C6.57061 7.83693 6.54477 7.96183 6.54477 8.09104C6.54477 8.22025 6.57061 8.34946 6.6223 8.47867C6.67398 8.60788 6.75151 8.72417 6.85488 8.82754L9.54245 11.5151C9.64581 11.6185 9.7578 11.6917 9.87839 11.7348C9.99899 11.7778 10.1282 11.7994 10.266 11.7994C10.4038 11.7994 10.5331 11.7778 10.6537 11.7348C10.7743 11.6917 10.8862 11.6185 10.9896 11.5151L13.6772 8.82754C13.8839 8.62081 13.983 8.37961 13.9744 8.10396C13.9657 7.82832 13.8667 7.58712 13.6772 7.38039C13.5738 7.27702 13.4575 7.19949 13.3283 7.14781C13.1991 7.09613 13.0699 7.06598 12.9407 7.05736C12.8115 7.04875 12.6823 7.07028 12.553 7.12197C12.4238 7.17365 12.3075 7.25118 12.2042 7.35455L11.2997 8.25902V5.00292C11.2997 4.71004 11.2006 4.46455 11.0025 4.26642C10.8044 4.0683 10.5589 3.96924 10.266 3.96924C9.97315 3.96924 9.72765 4.0683 9.52953 4.26642C9.3314 4.46455 9.23234 4.71004 9.23234 5.00292Z" fill="#4D4D4D"/>
<path fill-rule="evenodd" clip-rule="evenodd" d="M1.57018 18.8672C1.97504 19.272 2.46173 19.4745 3.03025 19.4745H14.1573C13.9827 18.985 13.8876 18.4578 13.8876 17.9083C13.8876 15.3351 15.9736 13.2491 18.5468 13.2491C18.898 13.2491 19.2402 13.288 19.5692 13.3616V2.93556C19.5692 2.36703 19.3667 1.88034 18.9619 1.47548C18.557 1.07062 18.0703 0.868195 17.5018 0.868195H3.03025C2.46173 0.868195 1.97504 1.07062 1.57018 1.47548C1.16532 1.88034 0.962891 2.36703 0.962891 2.93556V17.4071C0.962891 17.9756 1.16532 18.4623 1.57018 18.8672ZM11.7907 13.8797C11.3255 14.1639 10.8173 14.3061 10.266 14.3061C9.71473 14.3061 9.2065 14.1639 8.74134 13.8797C8.27619 13.5954 7.89717 13.2207 7.60429 12.7555C7.50093 12.6005 7.37172 12.4756 7.21666 12.3808C7.06161 12.2861 6.88933 12.2387 6.69982 12.2387H3.03025V2.93556H17.5018V12.2387H13.8322C13.6427 12.2387 13.4704 12.2861 13.3154 12.3808C13.1603 12.4756 13.0311 12.6005 12.9278 12.7555C12.6349 13.2207 12.2559 13.5954 11.7907 13.8797Z" fill="#4D4D4D"/>
<path d="M17.8839 18.254H15.3558V17.4113H17.8839V14.8832H18.7266V17.4113H21.2548V18.254H18.7266V20.7822H17.8839V18.254Z" fill="#4D4D4D"/>
</svg>
