<svg width="17" height="17" viewBox="0 0 17 17" fill="none" xmlns="http://www.w3.org/2000/svg">
<mask id="mask0_473_1279" style="mask-type:alpha" maskUnits="userSpaceOnUse" x="0" y="0" width="17" height="17">
<rect x="0.201172" y="0.299805" width="16.5204" height="16.5204" fill="#D9D9D9"/>
</mask>
<g mask="url(#mask0_473_1279)">
<path d="M0.889521 12.6901C0.694489 12.6901 0.531006 12.6241 0.399072 12.4922C0.267139 12.3602 0.201172 12.1967 0.201172 12.0017V11.6059C0.201172 11.1126 0.453567 10.7111 0.958356 10.4013C1.46315 10.0915 2.12855 9.93667 2.95457 9.93667C3.10371 9.93667 3.24712 9.93953 3.38479 9.94527C3.52246 9.95101 3.65439 9.96535 3.78059 9.98829C3.61997 10.2292 3.49951 10.4816 3.41921 10.7455C3.3389 11.0093 3.29874 11.2847 3.29874 11.5715V12.6901H0.889521ZM5.01962 12.6901C4.82458 12.6901 4.6611 12.6241 4.52917 12.4922C4.39723 12.3602 4.33127 12.1967 4.33127 12.0017V11.5715C4.33127 11.2044 4.43165 10.8688 4.63242 10.5648C4.83319 10.2608 5.11713 9.99403 5.48425 9.76458C5.85137 9.53513 6.2902 9.36304 6.80072 9.24832C7.31125 9.13359 7.86479 9.07623 8.46136 9.07623C9.06941 9.07623 9.62869 9.13359 10.1392 9.24832C10.6497 9.36304 11.0886 9.53513 11.4557 9.76458C11.8228 9.99403 12.1039 10.2608 12.2989 10.5648C12.4939 10.8688 12.5915 11.2044 12.5915 11.5715V12.0017C12.5915 12.1967 12.5255 12.3602 12.3936 12.4922C12.2616 12.6241 12.0981 12.6901 11.9031 12.6901H5.01962ZM13.624 12.6901V11.5715C13.624 11.2732 13.5867 10.9921 13.5121 10.7283C13.4376 10.4644 13.3257 10.2177 13.1766 9.98829C13.3028 9.96535 13.4318 9.95101 13.5638 9.94527C13.6957 9.93953 13.8305 9.93667 13.9682 9.93667C14.7942 9.93667 15.4596 10.0887 15.9644 10.3927C16.4692 10.6967 16.7216 11.1011 16.7216 11.6059V12.0017C16.7216 12.1967 16.6556 12.3602 16.5237 12.4922C16.3917 12.6241 16.2282 12.6901 16.0332 12.6901H13.624ZM2.95457 9.24832C2.57598 9.24832 2.25188 9.11351 1.98228 8.84391C1.71267 8.57431 1.57787 8.25021 1.57787 7.87162C1.57787 7.48155 1.71267 7.15459 1.98228 6.89072C2.25188 6.62685 2.57598 6.49492 2.95457 6.49492C3.34463 6.49492 3.6716 6.62685 3.93547 6.89072C4.19933 7.15459 4.33127 7.48155 4.33127 7.87162C4.33127 8.25021 4.19933 8.57431 3.93547 8.84391C3.6716 9.11351 3.34463 9.24832 2.95457 9.24832ZM13.9682 9.24832C13.5896 9.24832 13.2655 9.11351 12.9959 8.84391C12.7263 8.57431 12.5915 8.25021 12.5915 7.87162C12.5915 7.48155 12.7263 7.15459 12.9959 6.89072C13.2655 6.62685 13.5896 6.49492 13.9682 6.49492C14.3582 6.49492 14.6852 6.62685 14.9491 6.89072C15.2129 7.15459 15.3449 7.48155 15.3449 7.87162C15.3449 8.25021 15.2129 8.57431 14.9491 8.84391C14.6852 9.11351 14.3582 9.24832 13.9682 9.24832ZM8.46136 8.55997C7.88774 8.55997 7.40016 8.3592 6.99862 7.95766C6.59708 7.55612 6.39632 7.06854 6.39632 6.49492C6.39632 5.90982 6.59708 5.41937 6.99862 5.02357C7.40016 4.62777 7.88774 4.42987 8.46136 4.42987C9.04646 4.42987 9.53691 4.62777 9.93271 5.02357C10.3285 5.41937 10.5264 5.90982 10.5264 6.49492C10.5264 7.06854 10.3285 7.55612 9.93271 7.95766C9.53691 8.3592 9.04646 8.55997 8.46136 8.55997Z" fill="#E2E2E2"/>
</g>
</svg>
