<svg width="16" height="9" viewBox="0 0 16 9" fill="none" xmlns="http://www.w3.org/2000/svg">
<path d="M2.07396 8.69018C1.69537 8.69018 1.37127 8.55538 1.10167 8.28578C0.832067 8.01618 0.697266 7.69208 0.697266 7.31349C0.697266 6.93489 0.832067 6.6108 1.10167 6.34119C1.37127 6.07159 1.69537 5.93679 2.07396 5.93679H2.25466C2.30628 5.93679 2.36078 5.94826 2.41814 5.9712L5.55013 2.83922C5.52718 2.78185 5.51571 2.72736 5.51571 2.67573V2.49504C5.51571 2.11645 5.65051 1.79235 5.92012 1.52275C6.18972 1.25314 6.51382 1.11834 6.89241 1.11834C7.271 1.11834 7.5951 1.25314 7.8647 1.52275C8.13431 1.79235 8.26911 2.11645 8.26911 2.49504C8.26911 2.51799 8.25764 2.63271 8.23469 2.83922L9.98998 4.59451C10.0473 4.57156 10.1018 4.56009 10.1535 4.56009H10.5148C10.5665 4.56009 10.621 4.57156 10.6783 4.59451L13.122 2.15087C13.099 2.0935 13.0876 2.03901 13.0876 1.98738V1.80669C13.0876 1.4281 13.2224 1.104 13.492 0.834398C13.7616 0.564794 14.0857 0.429993 14.4643 0.429993C14.8428 0.429993 15.1669 0.564794 15.4365 0.834398C15.7062 1.104 15.841 1.4281 15.841 1.80669C15.841 2.18528 15.7062 2.50938 15.4365 2.77898C15.1669 3.04859 14.8428 3.18339 14.4643 3.18339H14.2836C14.2319 3.18339 14.1774 3.17192 14.1201 3.14897L11.6764 5.59261C11.6994 5.64997 11.7109 5.70447 11.7109 5.7561V5.93679C11.7109 6.31538 11.5761 6.63948 11.3065 6.90908C11.0368 7.17868 10.7127 7.31349 10.3342 7.31349C9.95557 7.31349 9.63147 7.17868 9.36186 6.90908C9.09226 6.63948 8.95746 6.31538 8.95746 5.93679V5.7561C8.95746 5.70447 8.96893 5.64997 8.99188 5.59261L7.23659 3.83732C7.17922 3.86027 7.12473 3.87174 7.0731 3.87174H6.89241C6.86947 3.87174 6.75474 3.86027 6.54824 3.83732L3.41625 6.96931C3.43919 7.02667 3.45066 7.08117 3.45066 7.13279V7.31349C3.45066 7.69208 3.31586 8.01618 3.04626 8.28578C2.77665 8.55538 2.45256 8.69018 2.07396 8.69018Z" fill="#838383"/>
</svg>
