<svg width="20" height="20" viewBox="0 0 20 20" fill="none" xmlns="http://www.w3.org/2000/svg">
<path d="M17.6053 15.1684V15.9678H3.21484V15.1684L4.81378 13.5694V8.77262C4.81378 6.29426 6.43671 4.11171 8.81113 3.40818C8.81113 3.32823 8.81113 3.25628 8.81113 3.17633C8.81113 2.75227 8.97959 2.34557 9.27945 2.04571C9.57931 1.74585 9.98601 1.57739 10.4101 1.57739C10.8341 1.57739 11.2408 1.74585 11.5407 2.04571C11.8406 2.34557 12.009 2.75227 12.009 3.17633C12.009 3.25628 12.009 3.32823 12.009 3.40818C14.3834 4.11171 16.0064 6.29426 16.0064 8.77262V13.5694L17.6053 15.1684ZM12.009 16.7673C12.009 17.1914 11.8406 17.5981 11.5407 17.8979C11.2408 18.1978 10.8341 18.3663 10.4101 18.3663C9.98601 18.3663 9.57931 18.1978 9.27945 17.8979C8.97959 17.5981 8.81113 17.1914 8.81113 16.7673" fill="white"/>
</svg>
