<svg width="25" height="25" viewBox="0 0 25 25" fill="none" xmlns="http://www.w3.org/2000/svg">
<path d="M21.4292 19.5V20.5H3.4292V19.5L5.4292 17.5V11.5C5.4292 8.4 7.4592 5.67 10.4292 4.79C10.4292 4.69 10.4292 4.6 10.4292 4.5C10.4292 3.96957 10.6399 3.46086 11.015 3.08579C11.3901 2.71071 11.8988 2.5 12.4292 2.5C12.9596 2.5 13.4683 2.71071 13.8434 3.08579C14.2185 3.46086 14.4292 3.96957 14.4292 4.5C14.4292 4.6 14.4292 4.69 14.4292 4.79C17.3992 5.67 19.4292 8.4 19.4292 11.5V17.5L21.4292 19.5ZM14.4292 21.5C14.4292 22.0304 14.2185 22.5391 13.8434 22.9142C13.4683 23.2893 12.9596 23.5 12.4292 23.5C11.8988 23.5 11.3901 23.2893 11.015 22.9142C10.6399 22.5391 10.4292 22.0304 10.4292 21.5" fill="#68655C"/>
</svg>
