<svg width="54" height="54" viewBox="0 0 54 54" fill="none" xmlns="http://www.w3.org/2000/svg">
<path d="M26.66 46.2318C19.9933 46.2318 14.1 42.8185 10.66 37.6985C10.74 32.3651 21.3266 29.4318 26.66 29.4318C31.9933 29.4318 42.58 32.3651 42.66 37.6985C39.22 42.8185 33.3266 46.2318 26.66 46.2318ZM26.66 8.36511C28.7817 8.36511 30.8165 9.20797 32.3168 10.7083C33.8171 12.2086 34.66 14.2434 34.66 16.3651C34.66 18.4868 33.8171 20.5217 32.3168 22.022C30.8165 23.5223 28.7817 24.3651 26.66 24.3651C24.5382 24.3651 22.5034 23.5223 21.0031 22.022C19.5028 20.5217 18.66 18.4868 18.66 16.3651C18.66 14.2434 19.5028 12.2086 21.0031 10.7083C22.5034 9.20797 24.5382 8.36512 26.66 8.36511ZM26.66 0.365112C23.158 0.365112 19.6904 1.05487 16.4551 2.39499C13.2197 3.73512 10.28 5.69937 7.80377 8.1756C2.8028 13.1766 -0.00671387 19.9593 -0.00671387 27.0318C-0.00671387 34.1042 2.8028 40.887 7.80377 45.888C10.28 48.3642 13.2197 50.3285 16.4551 51.6686C19.6904 53.0087 23.158 53.6985 26.66 53.6985C33.7324 53.6985 40.5152 50.8889 45.5161 45.888C50.5171 40.887 53.3266 34.1042 53.3266 27.0318C53.3266 12.2851 41.3266 0.365112 26.66 0.365112Z" fill="white"/>
</svg>
