<svg width="45" height="45" viewBox="0 0 45 45" fill="none" xmlns="http://www.w3.org/2000/svg">
<path d="M4.97282 44.8987C3.62356 44.8987 2.46851 44.4183 1.50767 43.4574C0.546826 42.4966 0.0664062 41.3416 0.0664062 39.9923C0.0664062 39.9923 0.0664062 6.99665 0.0664062 5.64738C0.0664062 4.29812 0.546826 3.14307 1.50767 2.18223C2.46851 1.22139 3.62356 0.740967 4.97282 0.740967H39.3177C40.667 0.740967 41.822 1.22139 42.7829 2.18223C43.7437 3.14307 44.2241 4.29812 44.2241 5.64738V39.9923C44.2241 41.3416 43.7437 42.4966 42.7829 43.4574C41.822 44.4183 40.667 44.8987 39.3177 44.8987H4.97282ZM22.1453 32.6327C23.4537 32.6327 24.6598 32.2954 25.7638 31.6207C26.8677 30.9461 27.7672 30.0568 28.4623 28.9529C28.7076 28.5849 29.0143 28.2884 29.3822 28.0636C29.7502 27.8387 30.1591 27.7263 30.6088 27.7263H39.3177V5.64738H4.97282V27.7263H13.6817C14.1315 27.7263 14.5403 27.8387 14.9083 28.0636C15.2763 28.2884 15.5829 28.5849 15.8283 28.9529C16.5233 30.0568 17.4229 30.9461 18.5268 31.6207C19.6307 32.2954 20.8369 32.6327 22.1453 32.6327Z" fill="#245501"/>
<path d="M24.8219 24.3708V16.6432L26.9684 18.7897C27.4591 19.2804 28.0417 19.5155 28.7163 19.495C29.391 19.4746 29.9736 19.219 30.4642 18.7284C30.7096 18.4831 30.8935 18.2173 31.0162 17.9311C31.1389 17.6449 31.2002 17.3485 31.2002 17.0418C31.2002 16.7352 31.1389 16.4285 31.0162 16.1219C30.8935 15.8152 30.7096 15.5392 30.4642 15.2939L24.0859 8.91556C23.8406 8.67024 23.5748 8.49647 23.2886 8.39425C23.0024 8.29203 22.6957 8.24092 22.3686 8.24092C22.0416 8.24092 21.7349 8.29203 21.4487 8.39425C21.1625 8.49647 20.8967 8.67024 20.6514 8.91556L14.2731 15.2939C13.7824 15.7845 13.5473 16.357 13.5678 17.0111C13.5882 17.6653 13.8233 18.2377 14.2731 18.7284C14.5184 18.9737 14.7944 19.1577 15.101 19.2804C15.4077 19.403 15.7143 19.4746 16.021 19.495C16.3276 19.5155 16.6343 19.4644 16.9409 19.3417C17.2476 19.219 17.5236 19.035 17.7689 18.7897L19.9154 16.6432V24.3708C19.9154 25.0658 20.1505 25.6485 20.6207 26.1187C21.0909 26.5889 21.6736 26.824 22.3686 26.824C23.0637 26.824 23.6464 26.5889 24.1166 26.1187C24.5868 25.6485 24.8219 25.0658 24.8219 24.3708Z" fill="#245501"/>
</svg>
