<svg width="20" height="18" viewBox="0 0 20 18" fill="none" xmlns="http://www.w3.org/2000/svg">
<path d="M15.0213 17.1774V10.516H16.7055V17.1774H15.0213ZM12.5327 14.6887V13.0046H19.1941V14.6887H12.5327Z" fill="#68655C"/>
<path fill-rule="evenodd" clip-rule="evenodd" d="M13.652 0.497375C15.598 0.497375 16.8954 0.775375 16.8954 0.775375C16.8954 0.775375 17.7161 4.81077 16.5192 8.87833C16.312 8.85132 16.1007 8.8374 15.8861 8.8374C13.2064 8.8374 11.0342 11.0097 11.0342 13.6893C11.0342 14.322 11.1552 14.9263 11.3755 15.4805C9.46775 16.525 6.95211 17.1774 3.64404 17.1774C2.71739 17.1774 1.69808 17.0847 0.678764 16.992C-0.803903 2.44338 8.55537 0.497375 13.652 0.497375ZM4.20004 13.4707C4.20004 13.4707 4.20004 4.20404 13.4667 4.20404C13.4667 4.20404 7.9067 6.05737 4.20004 13.4707Z" fill="#68655C"/>
</svg>
