<svg width="15" height="17" viewBox="0 0 15 17" fill="none" xmlns="http://www.w3.org/2000/svg">
<path d="M14.6073 13.6686V14.4681H0.216797V13.6686L1.81574 12.0697V7.27286C1.81574 4.79451 3.43866 2.61196 5.81308 1.90842C5.81308 1.82848 5.81308 1.75652 5.81308 1.67658C5.81308 1.25251 5.98154 0.845814 6.2814 0.545955C6.58126 0.246096 6.98796 0.0776367 7.41202 0.0776367C7.83609 0.0776367 8.24279 0.246096 8.54264 0.545955C8.8425 0.845814 9.01096 1.25251 9.01096 1.67658C9.01096 1.75652 9.01096 1.82848 9.01096 1.90842C11.3854 2.61196 13.0083 4.79451 13.0083 7.27286V12.0697L14.6073 13.6686ZM9.01096 15.2676C9.01096 15.6916 8.8425 16.0983 8.54264 16.3982C8.24279 16.698 7.83609 16.8665 7.41202 16.8665C6.98796 16.8665 6.58126 16.698 6.2814 16.3982C5.98154 16.0983 5.81308 15.6916 5.81308 15.2676" fill="white"/>
</svg>
