<svg width="112" height="36" viewBox="0 0 112 36" fill="none" xmlns="http://www.w3.org/2000/svg">
<path d="M2.93652 32.6821V29.7457C2.93652 29.7457 10.2777 26.8092 17.6188 26.8092C24.9599 26.8092 32.301 29.7457 32.301 29.7457V32.6821H2.93652ZM16.591 13.742C14.8292 8.01593 5.87298 9.33734 5.87298 9.33734C5.87298 9.33734 6.16662 20.7895 14.5355 19.0276C13.9482 14.7698 11.7459 13.5952 11.7459 13.5952C15.8569 13.5952 16.1506 18.5872 16.1506 18.5872V25.341C16.591 25.341 17.1783 25.341 17.6188 25.341C18.0592 25.341 18.6465 25.341 19.087 25.341V19.1745C19.087 19.1745 19.087 13.4484 23.4917 11.9801C23.4917 11.9801 20.5552 16.3848 20.5552 19.3213C30.8328 20.349 30.8328 6.25406 30.8328 6.25406C30.8328 6.25406 17.7656 4.78584 16.591 13.742Z" fill="#245501"/>
<path d="M49.163 11.3365C49.163 11.1805 49.14 11.0406 49.0942 10.9167C49.0483 10.7883 48.9634 10.669 48.8395 10.5588C48.7156 10.4487 48.5367 10.3386 48.3027 10.2285C48.0733 10.1138 47.7705 9.9945 47.3942 9.87061C46.9538 9.72379 46.5293 9.55862 46.121 9.37509C45.7126 9.18697 45.3479 8.96903 45.0267 8.72127C44.7055 8.46892 44.4509 8.17527 44.2628 7.84033C44.0747 7.5008 43.9806 7.10622 43.9806 6.65657C43.9806 6.22528 44.0769 5.83758 44.2697 5.49346C44.4624 5.14476 44.7308 4.84882 45.0749 4.60565C45.4236 4.35788 45.8319 4.16977 46.2999 4.0413C46.7679 3.90824 47.2795 3.84171 47.8347 3.84171C48.5688 3.84171 49.2157 3.97018 49.7755 4.22712C50.3398 4.47947 50.7803 4.83964 51.0969 5.30764C51.4181 5.77105 51.5787 6.31934 51.5787 6.95251H49.1767C49.1767 6.70016 49.124 6.47763 49.0184 6.28493C48.9175 6.09222 48.7638 5.94081 48.5573 5.8307C48.3509 5.72058 48.0916 5.66552 47.7796 5.66552C47.4768 5.66552 47.2222 5.7114 47.0157 5.80317C46.8092 5.89493 46.6532 6.01881 46.5477 6.17481C46.4422 6.32622 46.3894 6.49369 46.3894 6.67722C46.3894 6.82863 46.4307 6.96628 46.5133 7.09016C46.6005 7.20945 46.722 7.32186 46.878 7.42739C47.0386 7.53292 47.2313 7.63386 47.4562 7.73021C47.6856 7.82657 47.9425 7.92063 48.227 8.01239C48.7592 8.18215 49.2318 8.37256 49.6447 8.58362C50.0623 8.79009 50.4133 9.02638 50.6977 9.2925C50.9868 9.55403 51.2047 9.85226 51.3515 10.1872C51.503 10.5221 51.5787 10.9007 51.5787 11.3228C51.5787 11.7724 51.4915 12.1716 51.3171 12.5203C51.1428 12.869 50.8927 13.1649 50.567 13.4081C50.2412 13.6467 49.8512 13.8279 49.397 13.9518C48.9427 14.0757 48.4357 14.1376 47.876 14.1376C47.3621 14.1376 46.8551 14.0734 46.355 13.9449C45.8595 13.8119 45.4098 13.61 45.0061 13.3393C44.6023 13.064 44.2788 12.713 44.0357 12.2863C43.7971 11.855 43.6778 11.3434 43.6778 10.7515H46.1003C46.1003 11.0452 46.1393 11.293 46.2173 11.4948C46.2953 11.6967 46.41 11.8596 46.5615 11.9835C46.7129 12.1028 46.8987 12.19 47.1189 12.245C47.3392 12.2955 47.5915 12.3207 47.876 12.3207C48.1834 12.3207 48.4312 12.2771 48.6193 12.19C48.8074 12.0982 48.945 11.9789 49.0322 11.8321C49.1194 11.6807 49.163 11.5155 49.163 11.3365ZM56.3206 14.1376C55.7149 14.1376 55.1735 14.0436 54.6964 13.8555C54.2192 13.6628 53.8154 13.3989 53.4851 13.064C53.1593 12.7291 52.9092 12.3437 52.7349 11.9078C52.5651 11.4719 52.4802 11.0108 52.4802 10.5244V10.2629C52.4802 9.71691 52.556 9.21221 52.7074 8.7488C52.8588 8.2808 53.0836 7.87245 53.3818 7.52375C53.6801 7.17504 54.054 6.90434 54.5036 6.71163C54.9533 6.51434 55.4763 6.41569 56.0728 6.41569C56.6005 6.41569 57.073 6.50058 57.4906 6.67034C57.9081 6.8401 58.2614 7.08328 58.5504 7.39986C58.8441 7.71645 59.0666 8.09957 59.218 8.54921C59.374 8.99885 59.452 9.50356 59.452 10.0633V11.0062H53.3681V9.55403H57.1877V9.37509C57.1923 9.12732 57.1487 8.91627 57.057 8.74191C56.9698 8.56756 56.8413 8.4345 56.6716 8.34274C56.5018 8.25098 56.2953 8.20509 56.0522 8.20509C55.7998 8.20509 55.5911 8.26015 55.4259 8.37027C55.2653 8.48039 55.1391 8.6318 55.0474 8.8245C54.9602 9.01262 54.8982 9.23056 54.8615 9.47832C54.8248 9.72608 54.8065 9.98761 54.8065 10.2629V10.5244C54.8065 10.7997 54.8432 11.0498 54.9166 11.2746C54.9946 11.4994 55.1047 11.6921 55.2469 11.8527C55.3938 12.0087 55.5681 12.1303 55.77 12.2175C55.9765 12.3047 56.2105 12.3482 56.472 12.3482C56.7886 12.3482 57.1006 12.2886 57.408 12.1693C57.7154 12.05 57.9792 11.8527 58.1994 11.5774L59.2524 12.83C59.101 13.0457 58.8854 13.2544 58.6055 13.4563C58.3302 13.6582 57.9999 13.8234 57.6145 13.9518C57.229 14.0757 56.7978 14.1376 56.3206 14.1376ZM62.7349 8.12939V14H60.4156V6.55334H62.5904L62.7349 8.12939ZM62.4527 10.022L61.9228 10.0358C61.9228 9.51273 61.9847 9.03097 62.1086 8.5905C62.2325 8.15004 62.416 7.76692 62.6592 7.44116C62.9024 7.1154 63.2006 6.86304 63.5539 6.6841C63.9118 6.50516 64.3247 6.41569 64.7927 6.41569C65.1185 6.41569 65.4144 6.46616 65.6805 6.5671C65.9466 6.66346 66.176 6.81716 66.3688 7.02822C66.5615 7.23469 66.7083 7.50539 66.8092 7.84033C66.9147 8.17068 66.9675 8.56756 66.9675 9.03097V14H64.6482V9.32691C64.6482 9.01032 64.6115 8.77174 64.5381 8.61115C64.4692 8.45056 64.3683 8.34274 64.2352 8.28768C64.1022 8.23262 63.9393 8.20509 63.7466 8.20509C63.5447 8.20509 63.3635 8.25098 63.2029 8.34274C63.0423 8.4345 62.9047 8.56297 62.79 8.72815C62.6798 8.88874 62.595 9.07915 62.5353 9.29938C62.4802 9.51962 62.4527 9.7605 62.4527 10.022ZM66.706 10.022L66.059 10.0358C66.059 9.51273 66.1164 9.03097 66.2311 8.5905C66.3504 8.15004 66.527 7.76692 66.761 7.44116C66.9996 7.1154 67.2956 6.86304 67.6489 6.6841C68.0022 6.50516 68.4128 6.41569 68.8808 6.41569C69.2203 6.41569 69.5323 6.46616 69.8168 6.5671C70.1013 6.66804 70.3467 6.83093 70.5532 7.05575C70.7597 7.28057 70.9203 7.5788 71.035 7.95045C71.1497 8.31751 71.207 8.77174 71.207 9.31315V14H68.8808V9.31315C68.8808 9.00574 68.8441 8.77403 68.7707 8.61803C68.7019 8.45745 68.6009 8.34962 68.4679 8.29456C68.3348 8.23492 68.1765 8.20509 67.993 8.20509C67.7727 8.20509 67.5823 8.25098 67.4217 8.34274C67.2612 8.4345 67.1258 8.56297 67.0157 8.72815C66.9102 8.88874 66.8322 9.07915 66.7817 9.29938C66.7312 9.51962 66.706 9.7605 66.706 10.022ZM76.1416 14.1376C75.536 14.1376 74.9946 14.0436 74.5174 13.8555C74.0402 13.6628 73.6365 13.3989 73.3061 13.064C72.9804 12.7291 72.7303 12.3437 72.5559 11.9078C72.3862 11.4719 72.3013 11.0108 72.3013 10.5244V10.2629C72.3013 9.71691 72.377 9.21221 72.5284 8.7488C72.6798 8.2808 72.9047 7.87245 73.2029 7.52375C73.5011 7.17504 73.8751 6.90434 74.3247 6.71163C74.7743 6.51434 75.2974 6.41569 75.8939 6.41569C76.4215 6.41569 76.8941 6.50058 77.3116 6.67034C77.7292 6.8401 78.0824 7.08328 78.3715 7.39986C78.6651 7.71645 78.8877 8.09957 79.0391 8.54921C79.1951 8.99885 79.2731 9.50356 79.2731 10.0633V11.0062H73.1891V9.55403H77.0088V9.37509C77.0134 9.12732 76.9698 8.91627 76.878 8.74191C76.7909 8.56756 76.6624 8.4345 76.4926 8.34274C76.3229 8.25098 76.1164 8.20509 75.8732 8.20509C75.6209 8.20509 75.4121 8.26015 75.2469 8.37027C75.0863 8.48039 74.9602 8.6318 74.8684 8.8245C74.7812 9.01262 74.7193 9.23056 74.6826 9.47832C74.6459 9.72608 74.6275 9.98761 74.6275 10.2629V10.5244C74.6275 10.7997 74.6642 11.0498 74.7376 11.2746C74.8156 11.4994 74.9258 11.6921 75.068 11.8527C75.2148 12.0087 75.3892 12.1303 75.591 12.2175C75.7975 12.3047 76.0315 12.3482 76.293 12.3482C76.6096 12.3482 76.9216 12.2886 77.229 12.1693C77.5364 12.05 77.8003 11.8527 78.0205 11.5774L79.0735 12.83C78.9221 13.0457 78.7064 13.2544 78.4266 13.4563C78.1513 13.6582 77.8209 13.8234 77.4355 13.9518C77.0501 14.0757 76.6188 14.1376 76.1416 14.1376ZM82.494 8.14315V14H80.1747V6.55334H82.3495L82.494 8.14315ZM82.2187 10.022L81.675 10.0358C81.675 9.46685 81.7438 8.95985 81.8815 8.5148C82.0191 8.06515 82.2141 7.68433 82.4665 7.37233C82.7188 7.06034 83.0194 6.82404 83.3681 6.66346C83.7214 6.49828 84.1136 6.41569 84.5449 6.41569C84.8891 6.41569 85.2033 6.46616 85.4878 6.5671C85.7769 6.66804 86.0246 6.83093 86.2311 7.05575C86.4422 7.28057 86.6027 7.5788 86.7129 7.95045C86.8276 8.31751 86.8849 8.77174 86.8849 9.31315V14H84.5518V9.30626C84.5518 9.00803 84.5105 8.78091 84.4279 8.62492C84.3453 8.46433 84.2261 8.35421 84.0701 8.29456C83.9141 8.23492 83.7236 8.20509 83.4988 8.20509C83.2602 8.20509 83.0584 8.25098 82.8932 8.34274C82.728 8.4345 82.5949 8.56297 82.494 8.72815C82.3977 8.88874 82.3265 9.07915 82.2807 9.29938C82.2394 9.51962 82.2187 9.7605 82.2187 10.022ZM92.0948 6.55334V8.1638H87.6076V6.55334H92.0948ZM88.5504 4.702H90.8698V11.5705C90.8698 11.7678 90.8927 11.9215 90.9386 12.0317C90.9845 12.1372 91.0625 12.2129 91.1726 12.2588C91.2873 12.3001 91.4387 12.3207 91.6268 12.3207C91.7599 12.3207 91.87 12.3184 91.9572 12.3138C92.0444 12.3047 92.1269 12.2932 92.2049 12.2794V13.9381C92.0077 14.0023 91.8012 14.0505 91.5855 14.0826C91.3699 14.1193 91.1405 14.1376 90.8973 14.1376C90.4018 14.1376 89.9774 14.0596 89.6241 13.9036C89.2754 13.7476 89.0093 13.5022 88.8257 13.1672C88.6422 12.8323 88.5504 12.3964 88.5504 11.8596V4.702ZM96.6234 14.1376C96.0177 14.1376 95.4763 14.0436 94.9992 13.8555C94.522 13.6628 94.1182 13.3989 93.7879 13.064C93.4621 12.7291 93.2121 12.3437 93.0377 11.9078C92.8679 11.4719 92.7831 11.0108 92.7831 10.5244V10.2629C92.7831 9.71691 92.8588 9.21221 93.0102 8.7488C93.1616 8.2808 93.3864 7.87245 93.6846 7.52375C93.9829 7.17504 94.3568 6.90434 94.8065 6.71163C95.2561 6.51434 95.7792 6.41569 96.3756 6.41569C96.9033 6.41569 97.3759 6.50058 97.7934 6.67034C98.2109 6.8401 98.5642 7.08328 98.8533 7.39986C99.1469 7.71645 99.3694 8.09957 99.5208 8.54921C99.6768 8.99885 99.7548 9.50356 99.7548 10.0633V11.0062H93.6709V9.55403H97.4906V9.37509C97.4951 9.12732 97.4516 8.91627 97.3598 8.74191C97.2726 8.56756 97.1442 8.4345 96.9744 8.34274C96.8046 8.25098 96.5982 8.20509 96.355 8.20509C96.1026 8.20509 95.8939 8.26015 95.7287 8.37027C95.5681 8.48039 95.4419 8.6318 95.3502 8.8245C95.263 9.01262 95.201 9.23056 95.1643 9.47832C95.1276 9.72608 95.1093 9.98761 95.1093 10.2629V10.5244C95.1093 10.7997 95.146 11.0498 95.2194 11.2746C95.2974 11.4994 95.4075 11.6921 95.5497 11.8527C95.6966 12.0087 95.8709 12.1303 96.0728 12.2175C96.2793 12.3047 96.5133 12.3482 96.7748 12.3482C97.0914 12.3482 97.4034 12.2886 97.7108 12.1693C98.0182 12.05 98.282 11.8527 98.5023 11.5774L99.5553 12.83C99.4038 13.0457 99.1882 13.2544 98.9083 13.4563C98.633 13.6582 98.3027 13.8234 97.9173 13.9518C97.5319 14.0757 97.1006 14.1376 96.6234 14.1376ZM104.6 11.9078C104.6 11.7793 104.556 11.6692 104.469 11.5774C104.387 11.4811 104.24 11.3939 104.029 11.3159C103.818 11.2333 103.522 11.1507 103.141 11.0681C102.778 10.9901 102.437 10.8869 102.115 10.7584C101.799 10.63 101.521 10.474 101.283 10.2904C101.044 10.1069 100.856 9.88897 100.718 9.63661C100.585 9.38426 100.519 9.09521 100.519 8.76944C100.519 8.45286 100.585 8.15462 100.718 7.87474C100.856 7.59027 101.056 7.34022 101.317 7.12457C101.583 6.90434 101.907 6.73228 102.288 6.6084C102.668 6.47993 103.102 6.41569 103.588 6.41569C104.258 6.41569 104.836 6.51893 105.323 6.7254C105.809 6.92728 106.183 7.21175 106.444 7.5788C106.711 7.94127 106.844 8.36109 106.844 8.83827H104.524C104.524 8.65015 104.492 8.48956 104.428 8.35651C104.368 8.22345 104.27 8.12251 104.132 8.05368C103.994 7.98027 103.811 7.94357 103.581 7.94357C103.421 7.94357 103.274 7.97339 103.141 8.03304C103.012 8.09268 102.909 8.17527 102.831 8.2808C102.753 8.38633 102.714 8.51021 102.714 8.65244C102.714 8.75339 102.737 8.84515 102.783 8.92774C102.834 9.00574 102.909 9.07915 103.01 9.14797C103.111 9.21221 103.24 9.27185 103.396 9.32691C103.552 9.37738 103.74 9.42326 103.96 9.46456C104.46 9.55632 104.928 9.68709 105.364 9.85685C105.8 10.0266 106.153 10.2675 106.424 10.5795C106.699 10.8915 106.837 11.3113 106.837 11.839C106.837 12.1693 106.761 12.4744 106.61 12.7543C106.458 13.0296 106.24 13.2728 105.956 13.4838C105.671 13.6903 105.33 13.8509 104.93 13.9656C104.531 14.0803 104.082 14.1376 103.581 14.1376C102.87 14.1376 102.269 14.0115 101.778 13.7591C101.287 13.5022 100.916 13.181 100.663 12.7956C100.416 12.4056 100.292 12.011 100.292 11.6118H102.453C102.462 11.8412 102.517 12.0294 102.618 12.1762C102.723 12.323 102.863 12.4308 103.038 12.4997C103.212 12.5685 103.414 12.6029 103.643 12.6029C103.854 12.6029 104.029 12.5731 104.166 12.5134C104.309 12.4538 104.416 12.3735 104.49 12.2725C104.563 12.167 104.6 12.0454 104.6 11.9078ZM49.6998 27.607H52.1086C52.0765 28.3044 51.8884 28.9192 51.5443 29.4515C51.2001 29.9837 50.723 30.3989 50.1127 30.6972C49.5071 30.9908 48.7913 31.1376 47.9655 31.1376C47.2956 31.1376 46.6968 31.0252 46.1692 30.8004C45.6461 30.5756 45.2011 30.2521 44.834 29.83C44.4715 29.4079 44.1939 28.8963 44.0012 28.2953C43.8131 27.6942 43.7191 27.0174 43.7191 26.265V25.7213C43.7191 24.9688 43.8177 24.292 44.015 23.691C44.2169 23.0853 44.5014 22.5715 44.8684 22.1493C45.2401 21.7226 45.6851 21.3969 46.2036 21.1721C46.722 20.9472 47.2979 20.8348 47.931 20.8348C48.8028 20.8348 49.5392 20.9908 50.1403 21.3028C50.7413 21.6148 51.207 22.0438 51.5374 22.5898C51.8677 23.1312 52.0627 23.7483 52.1224 24.4412H49.7136C49.7044 24.0649 49.6401 23.7506 49.5209 23.4983C49.4016 23.2413 49.2134 23.0486 48.9565 22.9202C48.6996 22.7917 48.3577 22.7275 47.931 22.7275C47.6328 22.7275 47.3736 22.7825 47.1533 22.8926C46.9331 23.0028 46.7496 23.1771 46.6028 23.4157C46.4559 23.6543 46.3458 23.964 46.2724 24.3448C46.2036 24.721 46.1692 25.1753 46.1692 25.7075V26.265C46.1692 26.7972 46.2013 27.2514 46.2655 27.6277C46.3298 28.0039 46.433 28.3113 46.5752 28.5499C46.7175 28.7885 46.901 28.9651 47.1258 29.0798C47.3552 29.19 47.6351 29.245 47.9655 29.245C48.3325 29.245 48.6422 29.1877 48.8946 29.073C49.1469 28.9537 49.3419 28.7747 49.4796 28.5361C49.6172 28.293 49.6906 27.9833 49.6998 27.607ZM55.4809 25.3978V31H53.1616V23.5533H55.3295L55.4809 25.3978ZM57.6833 23.4983L57.642 25.6524C57.5502 25.6433 57.4263 25.6318 57.2703 25.618C57.1143 25.6043 56.9836 25.5974 56.878 25.5974C56.6073 25.5974 56.3733 25.6295 56.176 25.6937C55.9833 25.7534 55.8228 25.8451 55.6943 25.969C55.5704 26.0883 55.4786 26.2397 55.419 26.4233C55.3639 26.6068 55.3387 26.8201 55.3433 27.0633L54.9235 26.788C54.9235 26.2879 54.9716 25.8337 55.068 25.4253C55.1689 25.0124 55.3112 24.6568 55.4947 24.3586C55.6782 24.0557 55.9008 23.824 56.1623 23.6635C56.4238 23.4983 56.7175 23.4157 57.0432 23.4157C57.1579 23.4157 57.2703 23.4226 57.3805 23.4363C57.4952 23.4501 57.5961 23.4708 57.6833 23.4983ZM60.9317 23.5533V31H58.6055V23.5533H60.9317ZM58.4679 21.6332C58.4679 21.3028 58.5872 21.0321 58.8257 20.8211C59.0643 20.61 59.374 20.5045 59.7549 20.5045C60.1357 20.5045 60.4454 20.61 60.684 20.8211C60.9225 21.0321 61.0418 21.3028 61.0418 21.6332C61.0418 21.9635 60.9225 22.2342 60.684 22.4453C60.4454 22.6563 60.1357 22.7619 59.7549 22.7619C59.374 22.7619 59.0643 22.6563 58.8257 22.4453C58.5872 22.2342 58.4679 21.9635 58.4679 21.6332ZM62.0742 27.3524V27.2078C62.0742 26.6619 62.1522 26.1594 62.3082 25.7006C62.4642 25.2372 62.6936 24.8357 62.9964 24.4962C63.2992 24.1567 63.6732 23.8929 64.1182 23.7048C64.5633 23.512 65.0772 23.4157 65.6599 23.4157C66.2472 23.4157 66.7633 23.512 67.2084 23.7048C67.658 23.8929 68.0343 24.1567 68.3371 24.4962C68.6399 24.8357 68.8693 25.2372 69.0253 25.7006C69.1813 26.1594 69.2593 26.6619 69.2593 27.2078V27.3524C69.2593 27.8938 69.1813 28.3962 69.0253 28.8596C68.8693 29.3184 68.6399 29.7199 68.3371 30.064C68.0343 30.4035 67.6603 30.6674 67.2153 30.8555C66.7702 31.0436 66.2563 31.1376 65.6736 31.1376C65.0909 31.1376 64.5748 31.0436 64.1251 30.8555C63.6755 30.6674 63.2992 30.4035 62.9964 30.064C62.6936 29.7199 62.4642 29.3184 62.3082 28.8596C62.1522 28.3962 62.0742 27.8938 62.0742 27.3524ZM64.3935 27.2078V27.3524C64.3935 27.6323 64.4142 27.8938 64.4555 28.137C64.4968 28.3801 64.5656 28.5935 64.6619 28.777C64.7583 28.956 64.8891 29.0959 65.0542 29.1968C65.2194 29.2978 65.4259 29.3482 65.6736 29.3482C65.9168 29.3482 66.1187 29.2978 66.2793 29.1968C66.4445 29.0959 66.5752 28.956 66.6716 28.777C66.7679 28.5935 66.8367 28.3801 66.878 28.137C66.9193 27.8938 66.94 27.6323 66.94 27.3524V27.2078C66.94 26.9371 66.9193 26.6825 66.878 26.4439C66.8367 26.2007 66.7679 25.9874 66.6716 25.8039C66.5752 25.6157 66.4445 25.4689 66.2793 25.3634C66.1141 25.2579 65.9076 25.2051 65.6599 25.2051C65.4167 25.2051 65.2125 25.2579 65.0473 25.3634C64.8868 25.4689 64.7583 25.6157 64.6619 25.8039C64.5656 25.9874 64.4968 26.2007 64.4555 26.4439C64.4142 26.6825 64.3935 26.9371 64.3935 27.2078ZM74.6413 29.19V23.5533H76.9675V31H74.7927L74.6413 29.19ZM74.8615 27.6758L75.4672 27.6621C75.4672 28.1622 75.4075 28.6256 75.2882 29.0523C75.1689 29.4744 74.9923 29.8415 74.7583 30.1535C74.5289 30.4655 74.2444 30.7086 73.9049 30.883C73.5699 31.0528 73.1822 31.1376 72.7418 31.1376C72.3747 31.1376 72.0375 31.0872 71.7301 30.9862C71.4272 30.8807 71.1657 30.7178 70.9455 30.4976C70.7253 30.2728 70.5532 29.986 70.4293 29.6373C70.31 29.284 70.2504 28.8619 70.2504 28.371V23.5533H72.5697V28.3847C72.5697 28.5499 72.5904 28.6921 72.6317 28.8114C72.6729 28.9307 72.7326 29.0317 72.8106 29.1142C72.8886 29.1922 72.9849 29.2519 73.0997 29.2932C73.2189 29.3299 73.3543 29.3482 73.5057 29.3482C73.8544 29.3482 74.1274 29.2748 74.3247 29.128C74.522 28.9812 74.6596 28.7816 74.7376 28.5293C74.8202 28.2769 74.8615 27.9924 74.8615 27.6758ZM80.6977 20.4288V31H78.3715V20.4288H80.6977ZM85.9971 29.128V26.0585C85.9971 25.8474 85.9673 25.6662 85.9076 25.5148C85.848 25.3634 85.7539 25.2464 85.6255 25.1638C85.497 25.0766 85.3249 25.033 85.1093 25.033C84.9349 25.033 84.7858 25.0629 84.6619 25.1225C84.5381 25.1822 84.444 25.2716 84.3798 25.3909C84.3155 25.5102 84.2834 25.6616 84.2834 25.8451H81.9641C81.9641 25.501 82.0398 25.1822 82.1912 24.8885C82.3472 24.5903 82.5674 24.331 82.8519 24.1108C83.1409 23.8906 83.4851 23.7208 83.8842 23.6015C84.288 23.4776 84.7376 23.4157 85.2332 23.4157C85.825 23.4157 86.3527 23.5143 86.8161 23.7116C87.2841 23.9089 87.6534 24.2049 87.9241 24.5995C88.1949 24.9894 88.3302 25.4804 88.3302 26.0723V29.1211C88.3302 29.6075 88.3577 29.9768 88.4128 30.2292C88.4678 30.4769 88.5458 30.6949 88.6468 30.883V31H86.3206C86.2105 30.7706 86.1279 30.4907 86.0728 30.1604C86.0223 29.8254 85.9971 29.4813 85.9971 29.128ZM86.2793 26.4508L86.293 27.6896H85.2676C85.0519 27.6896 84.8684 27.7194 84.717 27.7791C84.5702 27.8387 84.4509 27.9213 84.3591 28.0268C84.2719 28.1278 84.2077 28.2425 84.1664 28.371C84.1297 28.4994 84.1113 28.6348 84.1113 28.777C84.1113 28.9147 84.1435 29.0385 84.2077 29.1487C84.2765 29.2542 84.3683 29.3368 84.483 29.3964C84.5977 29.4561 84.7262 29.4859 84.8684 29.4859C85.1253 29.4859 85.3433 29.4377 85.5222 29.3414C85.7057 29.2404 85.8457 29.1188 85.942 28.9766C86.0384 28.8344 86.0866 28.7013 86.0866 28.5774L86.5959 29.5272C86.5041 29.7107 86.3986 29.8965 86.2793 30.0847C86.1646 30.2728 86.02 30.4471 85.8457 30.6077C85.6759 30.7637 85.4672 30.8922 85.2194 30.9931C84.9716 31.0895 84.6711 31.1376 84.3178 31.1376C83.859 31.1376 83.4369 31.0436 83.0515 30.8555C82.6706 30.6674 82.3655 30.4058 82.1361 30.0709C81.9067 29.7314 81.792 29.3414 81.792 28.9009C81.792 28.5155 81.8608 28.1714 81.9985 27.8685C82.1407 27.5657 82.3541 27.3088 82.6385 27.0977C82.923 26.8867 83.2855 26.7261 83.7259 26.616C84.1664 26.5059 84.6849 26.4508 85.2813 26.4508H86.2793ZM93.5195 28.9078C93.5195 28.7793 93.4759 28.6692 93.3887 28.5774C93.3061 28.4811 93.1593 28.3939 92.9482 28.3159C92.7372 28.2333 92.4412 28.1507 92.0604 28.0681C91.698 27.9901 91.3561 27.8869 91.035 27.7584C90.7184 27.63 90.4408 27.474 90.2022 27.2904C89.9636 27.1069 89.7755 26.889 89.6378 26.6366C89.5048 26.3843 89.4383 26.0952 89.4383 25.7694C89.4383 25.4529 89.5048 25.1546 89.6378 24.8747C89.7755 24.5903 89.9751 24.3402 90.2366 24.1246C90.5027 23.9043 90.8262 23.7323 91.207 23.6084C91.5878 23.4799 92.0214 23.4157 92.5078 23.4157C93.1776 23.4157 93.7558 23.5189 94.2421 23.7254C94.7285 23.9273 95.1024 24.2117 95.3639 24.5788C95.63 24.9413 95.7631 25.3611 95.7631 25.8383H93.4438C93.4438 25.6502 93.4116 25.4896 93.3474 25.3565C93.2878 25.2234 93.1891 25.1225 93.0515 25.0537C92.9138 24.9803 92.7303 24.9436 92.5009 24.9436C92.3403 24.9436 92.1935 24.9734 92.0604 25.033C91.9319 25.0927 91.8287 25.1753 91.7507 25.2808C91.6727 25.3863 91.6337 25.5102 91.6337 25.6524C91.6337 25.7534 91.6567 25.8451 91.7025 25.9277C91.753 26.0057 91.8287 26.0791 91.9297 26.148C92.0306 26.2122 92.1591 26.2719 92.3151 26.3269C92.4711 26.3774 92.6592 26.4233 92.8794 26.4646C93.3795 26.5563 93.8475 26.6871 94.2834 26.8568C94.7193 27.0266 95.0726 27.2675 95.3433 27.5795C95.6186 27.8915 95.7562 28.3113 95.7562 28.839C95.7562 29.1693 95.6805 29.4744 95.5291 29.7543C95.3777 30.0296 95.1598 30.2728 94.8753 30.4838C94.5908 30.6903 94.249 30.8509 93.8498 30.9656C93.4506 31.0803 93.001 31.1376 92.5009 31.1376C91.7897 31.1376 91.1887 31.0115 90.6977 30.7591C90.2068 30.5022 89.8351 30.181 89.5828 29.7956C89.335 29.4056 89.2111 29.011 89.2111 28.6118H91.3722C91.3814 28.8412 91.4364 29.0294 91.5374 29.1762C91.6429 29.323 91.7828 29.4308 91.9572 29.4997C92.1315 29.5685 92.3334 29.6029 92.5628 29.6029C92.7739 29.6029 92.9482 29.5731 93.0859 29.5134C93.2281 29.4538 93.3359 29.3735 93.4094 29.2725C93.4828 29.167 93.5195 29.0454 93.5195 28.9078Z" fill="#245501"/>
</svg>
