<svg width="26" height="22" viewBox="0 0 26 22" fill="none" xmlns="http://www.w3.org/2000/svg">
<path d="M0 21.4749V19.155C0 19.155 6.42151 16.8351 12.843 16.8351C19.2645 16.8351 25.6861 19.155 25.6861 19.155V21.4749H0ZM11.944 6.51142C10.4029 1.98757 2.56861 3.03154 2.56861 3.03154C2.56861 3.03154 2.82547 12.0792 10.146 10.6873C9.63227 7.32339 7.70582 6.39542 7.70582 6.39542C11.3019 6.39542 11.5587 10.3393 11.5587 10.3393V15.6751C11.944 15.6751 12.4577 15.6751 12.843 15.6751C13.2283 15.6751 13.742 15.6751 14.1273 15.6751V10.8033C14.1273 10.8033 14.1273 6.27943 17.9802 5.11947C17.9802 5.11947 15.4116 8.59935 15.4116 10.9193C24.4018 11.7312 24.4018 0.595621 24.4018 0.595621C24.4018 0.595621 12.9715 -0.564339 11.944 6.51142Z" fill="#245501"/>
</svg>
